<?xml version="1.0" standalone="no"?>
<!DOCTYPE svg PUBLIC "-//W3C//DTD SVG 20010904//EN"
 "http://www.w3.org/TR/2001/REC-SVG-20010904/DTD/svg10.dtd">
<svg version="1.0" xmlns="http://www.w3.org/2000/svg"
 width="500.000000pt" height="500.000000pt" viewBox="0 0 500.000000 500.000000"
 preserveAspectRatio="xMidYMid meet">
<metadata>
Created by potrace 1.14, written by Peter Selinger 2001-2017
</metadata>
<g transform="translate(0.000000,500.000000) scale(0.100000,-0.100000)"
fill="#000000" stroke="none">
<path d="M1769 4333 c-1 -5 -1 -11 0 -15 0 -5 -6 -8 -15 -8 -8 0 -12 5 -9 10
3 6 1 10 -4 10 -6 0 -11 -7 -11 -15 0 -8 -5 -15 -11 -15 -5 0 -7 6 -3 13 4 6
-3 3 -16 -8 -13 -11 -20 -14 -16 -7 9 15 -20 17 -29 2 -3 -5 -11 -10 -16 -10
-6 0 -7 5 -4 10 10 16 -18 7 -31 -9 -8 -11 -13 -11 -18 -2 -6 9 -12 7 -22 -6
-12 -16 -15 -16 -24 -3 -8 13 -10 12 -10 -4 0 -16 -2 -17 -17 -5 -11 10 -14
10 -9 2 4 -7 3 -13 -1 -13 -5 0 -15 6 -22 13 -11 10 -13 10 -7 0 4 -7 2 -13
-4 -13 -6 0 -9 -4 -6 -9 4 -5 -3 -7 -14 -4 -12 3 -20 0 -20 -8 0 -8 -6 -5 -15
7 -15 18 -15 18 -8 0 5 -16 3 -18 -15 -14 -15 4 -22 2 -22 -8 0 -8 -6 -11 -17
-7 -10 4 -14 2 -10 -4 7 -11 -22 -11 -41 0 -7 5 -10 3 -7 -5 4 -9 -3 -14 -17
-16 -48 -5 -62 -9 -66 -20 -2 -7 -10 -12 -18 -12 -8 0 -14 -4 -14 -10 0 -5 -7
-6 -17 -3 -10 4 -14 2 -10 -4 3 -5 1 -10 -6 -10 -21 -1 -107 -50 -100 -57 3
-3 -1 -6 -11 -6 -11 0 -15 -4 -10 -12 5 -9 2 -8 -9 1 -15 12 -17 12 -10 -4 5
-14 3 -17 -10 -12 -12 4 -14 2 -10 -11 6 -15 5 -16 -12 -2 -17 14 -18 14 -7
-7 10 -18 9 -21 -6 -19 -9 2 -27 -6 -39 -18 -17 -16 -19 -24 -10 -35 9 -12 9
-13 0 -7 -8 4 -13 2 -13 -4 0 -6 -5 -8 -12 -4 -6 4 -8 3 -4 -4 3 -6 2 -13 -4
-17 -5 -3 -10 -16 -10 -28 -1 -22 -1 -22 -17 -2 -15 19 -15 19 -9 -7 4 -18 2
-28 -5 -28 -6 0 -9 -7 -5 -15 3 -9 -3 -20 -14 -27 -14 -9 -16 -16 -9 -29 7
-13 5 -21 -8 -28 -12 -7 -14 -10 -4 -11 11 0 11 -3 1 -15 -10 -12 -10 -15 1
-15 11 0 11 -2 -1 -10 -13 -9 -13 -10 0 -11 10 0 8 -3 -5 -9 -11 -5 -14 -9 -7
-9 7 -1 10 -5 7 -11 -3 -5 0 -10 7 -10 8 0 9 -3 3 -8 -5 -4 -16 -14 -22 -23
-10 -13 -10 -16 2 -16 8 0 11 5 8 10 -4 6 -1 7 7 2 10 -6 7 -13 -11 -27 -13
-11 -18 -17 -11 -13 7 4 12 -1 12 -12 0 -11 6 -25 13 -32 7 -8 7 -11 1 -8 -12
7 -29 -51 -19 -61 3 -3 5 2 5 11 0 22 15 30 17 9 3 -44 8 -60 15 -56 4 3 8 0
8 -6 0 -6 5 -8 10 -5 6 3 10 -3 10 -14 0 -12 5 -21 11 -21 5 0 7 6 3 13 -4 6
4 1 19 -12 14 -13 23 -29 21 -36 -4 -9 2 -13 20 -11 15 2 29 -1 33 -7 3 -6 1
-7 -5 -3 -6 3 -14 1 -18 -6 -4 -7 -4 -10 1 -6 4 4 21 0 37 -8 16 -8 38 -12 49
-9 12 4 31 -1 47 -11 21 -14 24 -14 14 -2 -10 13 -10 17 3 22 9 3 14 2 11 -3
-3 -5 1 -14 9 -21 13 -11 14 -10 9 4 -5 12 -2 15 12 9 13 -5 15 -3 9 7 -5 9 0
8 15 -3 17 -11 27 -13 36 -6 8 7 15 6 20 -2 5 -8 3 -9 -6 -4 -9 6 -11 4 -5 -5
5 -8 4 -11 -3 -6 -6 3 -13 3 -16 -2 -2 -4 4 -9 15 -9 18 -2 23 7 20 32 0 6 8
11 19 12 11 1 20 -4 20 -10 0 -7 4 -6 10 3 5 8 10 10 10 5 0 -6 -5 -16 -11
-22 -9 -9 -7 -12 9 -10 11 0 18 5 16 9 -3 4 2 8 11 8 10 0 13 -5 9 -12 -4 -7
-3 -8 5 -4 6 4 9 11 6 16 -10 17 13 19 26 3 8 -9 9 -14 3 -10 -6 3 -11 0 -11
-8 0 -13 3 -12 18 1 10 9 27 14 39 11 11 -3 23 0 27 5 4 7 1 8 -7 3 -8 -5 -11
-4 -7 3 8 12 32 10 44 -3 4 -4 2 -5 -6 0 -10 6 -12 4 -7 -4 5 -8 12 -9 19 -3
7 5 20 8 30 7 9 -2 15 1 11 6 -10 16 8 10 23 -8 8 -10 12 -13 8 -6 -7 14 37
28 60 19 9 -3 19 3 26 15 9 19 9 19 -10 10 -11 -6 -23 -11 -28 -11 -4 1 3 7
16 14 14 8 32 11 40 8 10 -4 12 -1 6 8 -6 9 -4 11 4 6 9 -6 8 -13 -6 -29 -18
-21 -18 -21 7 -4 13 9 32 17 42 17 10 0 18 5 18 11 0 5 -6 7 -12 3 -7 -4 -9
-3 -5 1 8 9 32 15 57 15 93 -1 130 2 124 11 -8 14 18 22 28 8 8 -12 9 -11 5 1
-2 8 -11 15 -19 14 -8 -1 -15 5 -15 12 0 10 5 10 20 2 16 -8 23 -7 35 8 14 17
14 18 8 1 -5 -16 -1 -17 27 -13 17 2 34 5 36 5 2 1 -3 9 -10 18 -12 15 -12 16
3 10 10 -3 20 -1 24 5 4 6 3 8 -4 4 -6 -3 -14 -1 -18 5 -5 8 1 10 19 7 15 -3
24 -2 22 3 -3 4 -1 11 5 14 8 5 7 11 -1 21 -15 19 -4 18 15 -1 13 -14 15 -13
13 5 -1 11 -7 20 -14 20 -7 0 -13 4 -13 10 0 5 8 7 18 3 15 -6 15 -4 -2 16
-17 18 -17 21 -3 15 9 -3 17 -10 17 -16 0 -5 6 -6 13 -2 9 6 8 3 -1 -9 -12
-14 -11 -16 6 -14 13 1 18 7 14 19 -2 10 -8 18 -12 18 -5 0 -16 7 -25 16 -13
13 -13 19 -3 32 12 14 11 14 -9 2 -12 -8 -19 -19 -16 -25 4 -5 3 -7 -2 -3 -4
4 -15 2 -24 -4 -9 -7 -4 1 11 17 15 17 26 39 24 50 -2 11 4 23 13 27 12 5 10
7 -8 7 -18 1 -22 -3 -16 -16 5 -14 4 -15 -6 -6 -10 10 -9 16 2 29 13 16 12 17
-9 12 -19 -5 -21 -4 -11 8 16 19 4 18 -15 -2 -9 -8 -16 -11 -16 -5 0 5 5 13
10 16 6 4 8 11 5 16 -4 5 4 5 19 -1 20 -7 24 -6 19 5 -3 8 -9 13 -13 10 -5 -3
-12 0 -16 6 -4 7 -3 9 4 5 6 -3 17 3 25 14 7 11 17 17 20 13 12 -11 8 -25 -5
-17 -7 5 -8 3 -3 -6 6 -9 4 -11 -6 -5 -8 5 -10 4 -6 0 17 -20 33 -12 33 16 0
15 -2 28 -5 27 -27 -2 -41 4 -35 15 6 9 5 9 -7 0 -8 -7 -36 -10 -67 -8 -40 3
-51 0 -45 -9 4 -6 0 -3 -9 7 -15 16 -18 16 -18 4 0 -9 -5 -19 -12 -23 -7 -4
-8 -3 -4 4 4 7 2 12 -3 12 -6 0 -11 -4 -11 -8 0 -4 -9 -8 -20 -9 -11 -1 -18 2
-15 7 3 5 1 11 -4 14 -5 4 -8 -5 -7 -18 2 -17 -1 -23 -10 -19 -8 3 -14 10 -14
17 0 6 -4 4 -10 -4 -6 -9 -5 -17 3 -23 8 -6 6 -7 -6 -3 -10 3 -21 6 -23 6 -3
0 -2 4 1 10 3 6 -1 7 -9 4 -15 -6 -20 -18 -17 -38 1 -5 -4 -5 -11 1 -19 16
-30 16 -39 1 -7 -10 -9 -10 -9 0 0 7 -5 10 -10 7 -6 -4 -8 -10 -6 -14 3 -3 -4
-7 -15 -7 -10 0 -19 5 -19 10 0 5 -10 0 -23 -12 -23 -22 -38 -21 -33 1 2 7 1
9 -1 4 -3 -4 -9 -5 -14 -2 -5 4 -6 -1 -3 -9 6 -15 -11 -17 -33 -3 -7 5 -13 5
-13 0 0 -4 -5 -1 -10 7 -6 9 -10 10 -10 3 0 -14 -42 -13 -53 2 -5 6 -7 3 -3
-7 3 -10 0 -20 -6 -24 -6 -4 -8 -3 -4 4 3 6 2 13 -3 16 -5 3 -12 -2 -15 -11
-5 -12 -10 -13 -18 -5 -7 7 -19 7 -35 1 -15 -5 -22 -5 -18 0 3 5 1 12 -5 16
-5 3 -10 -2 -10 -11 0 -14 -3 -15 -12 -6 -14 14 -32 16 -23 2 3 -6 -1 -7 -9
-4 -9 3 -16 11 -16 18 0 7 -3 6 -9 -2 -7 -11 -9 -11 -14 2 -4 9 -3 15 1 15 25
-4 42 3 37 14 -4 6 1 3 11 -8 10 -12 15 -14 12 -5 -6 16 8 32 32 39 49 13 63
13 56 2 -4 -6 -2 -11 3 -11 6 0 11 6 11 14 0 16 27 29 41 20 5 -3 9 0 9 5 0 6
3 10 8 10 19 -3 31 2 28 14 -1 6 -1 9 1 4 3 -4 9 -5 14 -2 5 4 6 -2 2 -11 -4
-12 -3 -15 5 -10 7 4 12 13 12 21 0 8 5 17 12 21 7 4 8 3 4 -4 -4 -7 -1 -12 8
-12 8 0 18 5 22 12 5 7 2 8 -7 3 -8 -5 -11 -4 -6 0 11 13 47 13 47 1 0 -6 5
-5 12 2 7 7 17 12 23 12 5 0 3 -5 -5 -10 -12 -7 -10 -9 8 -7 13 1 21 6 18 14
-7 16 11 27 20 12 5 -8 3 -9 -6 -4 -9 5 -11 4 -6 -4 4 -6 12 -9 17 -5 5 3 16
0 24 -6 11 -9 15 -9 15 -1 0 6 -5 11 -11 11 -5 0 -7 5 -4 10 4 7 12 7 18 2 16
-11 42 -9 40 4 -1 5 7 10 18 10 10 0 19 -4 19 -8 0 -4 3 -7 8 -7 4 1 9 0 12
-1 3 -1 15 -3 27 -4 19 -2 21 0 10 13 -9 12 -5 11 17 -3 24 -15 28 -16 23 -3
-4 12 -1 15 16 11 12 -2 24 -9 25 -14 2 -6 11 -3 19 7 8 10 12 12 8 5 -7 -13
20 -12 44 2 8 5 6 -2 -5 -20 -18 -29 -18 -29 2 -11 20 17 34 14 34 -7 0 -6 -5
-4 -10 4 -5 8 -10 10 -10 4 0 -20 12 -23 35 -8 20 13 24 12 46 -4 13 -11 30
-17 38 -14 8 3 11 0 7 -6 -4 -6 2 -8 16 -4 16 4 19 2 13 -9 -7 -11 -5 -11 10
1 11 9 16 10 11 3 -7 -12 5 -18 27 -14 5 1 6 -3 2 -9 -3 -5 1 -10 10 -10 9 0
14 -4 11 -9 -3 -5 1 -12 10 -15 10 -4 13 -2 9 7 -4 6 0 4 8 -5 8 -10 18 -14
23 -10 4 4 2 -1 -5 -10 -12 -15 -11 -18 3 -18 9 0 16 -7 16 -16 0 -9 5 -12 12
-8 7 4 8 3 4 -4 -4 -7 -2 -12 5 -12 7 0 10 -11 6 -32 -3 -18 -3 -27 0 -20 2 6
9 12 14 12 6 0 8 -4 5 -9 -3 -5 1 -14 9 -21 10 -8 13 -21 8 -38 -4 -17 -2 -23
5 -18 6 3 13 2 17 -4 3 -5 0 -10 -8 -10 -8 0 -18 -7 -21 -16 -5 -14 -4 -15 8
-5 10 8 16 9 21 1 3 -5 1 -10 -5 -10 -7 0 -6 -5 2 -14 7 -8 17 -11 22 -8 5 3
6 0 2 -7 -6 -9 -11 -9 -22 0 -12 10 -13 9 -8 -5 3 -9 13 -16 21 -16 8 0 11 -5
8 -10 -4 -6 -10 -8 -15 -5 -5 3 -12 0 -16 -6 -4 -7 -3 -9 4 -5 6 3 13 -3 17
-14 4 -11 11 -18 16 -15 14 9 11 -29 -3 -44 -11 -10 -10 -11 3 -6 10 4 16 0
16 -9 0 -8 -3 -13 -7 -11 -4 2 -7 -2 -7 -10 0 -8 4 -12 9 -9 4 3 8 0 8 -6 0
-6 5 -8 13 -4 9 6 9 5 0 -8 -7 -8 -10 -18 -6 -22 4 -4 1 -5 -7 -3 -8 2 -12 2
-7 0 4 -3 7 -11 7 -19 0 -8 6 -14 13 -15 6 0 3 -4 -8 -9 -11 -5 -14 -9 -7 -9
8 -1 10 -6 6 -13 -6 -10 -5 -10 7 -1 13 10 15 10 14 -5 0 -9 -4 -22 -8 -28 -3
-6 -3 -14 0 -18 4 -3 7 -16 8 -27 1 -14 -3 -18 -14 -14 -11 3 -10 0 3 -10 14
-11 16 -15 5 -15 -8 0 -10 -3 -4 -8 6 -4 10 -21 10 -39 -1 -17 3 -30 6 -27 4
2 11 0 14 -6 4 -6 1 -9 -6 -8 -6 2 -14 -3 -17 -11 -3 -10 0 -11 9 -5 12 7 12
5 0 -9 -10 -13 -10 -17 -1 -17 9 0 9 -4 -1 -17 -8 -9 -9 -14 -3 -10 7 4 14 0
18 -8 3 -8 2 -14 -2 -12 -4 1 -7 -3 -7 -8 0 -6 5 -9 12 -7 16 4 17 -14 1 -24
-7 -4 -8 -3 -4 4 5 8 2 10 -8 6 -16 -6 -23 -25 -8 -23 4 1 14 1 22 -1 11 -1 9
-4 -5 -10 -19 -8 -19 -9 -1 -9 13 -1 17 -6 13 -21 -4 -16 -2 -18 13 -10 15 8
17 6 13 -13 -4 -18 -3 -19 7 -7 10 13 11 11 7 -7 -3 -12 -2 -22 2 -21 18 2 22
-3 12 -16 -9 -11 -9 -16 0 -22 8 -4 9 -3 5 4 -4 7 -2 12 4 12 7 0 9 8 5 20 -3
11 -3 20 2 20 5 0 10 -12 11 -27 1 -15 9 -34 18 -43 13 -11 15 -12 9 -1 -6 11
-4 13 8 8 11 -4 14 -2 10 9 -4 12 -8 12 -22 2 -14 -12 -15 -11 -2 5 11 14 16
15 29 5 13 -11 15 -10 10 9 -5 21 -4 22 15 11 21 -10 21 -10 7 7 -14 17 -14
18 9 6 13 -7 21 -9 17 -3 -9 14 42 65 57 56 7 -5 6 0 -3 11 -14 17 -14 18 7 6
20 -10 22 -9 16 5 -4 11 -2 15 4 11 5 -3 10 0 10 8 0 8 -5 11 -11 8 -6 -4 -2
4 8 16 19 21 19 21 1 15 -13 -5 -16 -4 -11 5 4 6 3 18 -4 26 -8 10 -8 15 1 21
7 4 9 3 6 -3 -4 -6 1 -17 11 -24 15 -12 16 -12 6 1 -6 8 -10 23 -9 33 2 11 -1
15 -8 10 -7 -4 -6 1 2 10 11 14 11 17 0 17 -10 0 -10 3 -1 12 16 16 15 28 -1
28 -14 0 -17 43 -4 56 3 4 5 -3 2 -15 -2 -11 1 -21 7 -21 5 0 8 6 5 14 -3 7 0
19 6 25 9 10 9 12 -2 9 -7 -2 -15 5 -16 15 -2 9 1 17 5 17 5 0 8 9 7 20 -1 12
-7 18 -14 16 -13 -5 -7 19 10 42 7 9 6 11 -6 7 -8 -4 -18 -2 -22 4 -3 6 1 11
9 11 9 0 16 5 16 11 0 5 -4 8 -9 4 -5 -3 -12 -1 -16 5 -3 5 2 10 12 11 14 0
15 2 3 7 -20 9 -24 40 -8 60 8 10 9 13 1 9 -6 -4 -14 -3 -18 3 -3 5 -1 10 5
10 13 0 4 54 -10 58 -5 2 -10 8 -10 13 0 6 4 8 9 4 6 -3 9 4 8 15 -1 11 -5 20
-10 20 -5 0 -3 8 4 17 8 9 9 14 3 10 -7 -4 -18 1 -25 10 -12 15 -12 16 6 10
19 -7 19 -6 2 7 -14 10 -15 15 -5 19 9 4 10 8 2 14 -6 4 -16 19 -23 33 l-12
25 20 -25 c11 -14 19 -18 17 -10 -3 17 -23 68 -33 83 -3 6 -2 7 4 4 5 -3 10 0
10 8 0 8 -4 12 -8 10 -4 -3 -10 2 -13 11 -4 10 -2 13 7 8 6 -4 9 -4 5 1 -4 4
-2 15 5 23 10 13 9 14 -3 7 -21 -13 -40 -15 -40 -4 0 5 7 9 16 9 8 0 13 4 9
10 -3 5 -13 7 -23 4 -14 -5 -15 -4 -2 5 8 6 11 11 5 11 -5 0 -1 8 10 17 20 15
20 15 -1 11 -17 -4 -20 -2 -17 13 3 10 10 16 16 12 6 -3 7 -1 3 6 -6 9 -11 9
-24 -1 -13 -12 -14 -10 -3 9 9 19 9 22 -3 17 -11 -4 -13 0 -9 16 4 14 1 20 -7
18 -7 -2 -13 7 -15 19 -1 14 3 20 9 16 6 -4 5 0 -1 9 -7 8 -10 18 -6 21 3 4
-1 7 -10 7 -18 0 -32 34 -21 51 4 8 -1 9 -17 5 -20 -6 -21 -5 -6 4 13 9 15 15
7 30 -6 12 -16 17 -26 13 -11 -4 -15 0 -12 13 2 12 -2 18 -11 16 -8 -2 -11 3
-8 12 4 10 1 13 -9 9 -10 -4 -12 0 -8 11 5 12 2 15 -10 10 -9 -3 -16 -1 -16 6
0 6 -5 8 -12 4 -8 -5 -8 -2 1 10 8 9 10 16 5 15 -17 -3 -54 13 -54 23 0 6 -9
8 -19 5 -13 -3 -18 0 -15 8 3 7 -2 15 -10 18 -9 4 -16 1 -16 -6 0 -7 -9 -1
-19 12 -19 25 -56 39 -45 18 3 -7 -4 -1 -15 13 -11 14 -21 21 -21 16 0 -5 -7
-2 -17 5 -15 13 -15 12 -4 -11 l12 -25 -20 23 c-19 22 -38 31 -26 12 3 -6 -1
-7 -9 -4 -9 3 -14 9 -11 13 2 4 -2 8 -10 8 -8 0 -15 -4 -15 -9 0 -5 -8 -5 -17
0 -10 5 -24 7 -31 5 -8 -3 -10 1 -5 14 6 15 4 16 -9 6 -8 -7 -17 -10 -20 -7
-3 2 -18 7 -34 10 -18 3 -24 1 -16 -4 8 -6 3 -9 -17 -9 -24 0 -27 3 -15 11 12
9 10 11 -10 11 -13 0 -24 -2 -24 -5 1 -19 -4 -23 -12 -10 -9 13 -10 13 -10 0
0 -10 -3 -11 -8 -4 -11 17 -52 28 -52 14 0 -6 5 -8 12 -4 7 5 8 3 4 -5 -6 -9
-12 -9 -25 3 -22 20 -31 20 -31 0 0 -8 -5 -12 -10 -9 -6 4 -8 11 -5 16 4 5 4
9 1 9 -3 0 -7 -3 -7 -7z m509 -98 c-3 -3 -9 2 -12 12 -6 14 -5 15 5 6 7 -7 10
-15 7 -18z m246 -181 c3 -8 2 -12 -4 -9 -6 3 -10 10 -10 16 0 14 7 11 14 -7z
m-1559 -72 c-3 -3 -11 0 -18 7 -9 10 -8 11 6 5 10 -3 15 -9 12 -12z m1145
-126 c0 -3 -4 -8 -10 -11 -5 -3 -10 -1 -10 4 0 6 5 11 10 11 6 0 10 -2 10 -4z
m-725 -36 c3 -5 1 -10 -4 -10 -6 0 -11 5 -11 10 0 6 2 10 4 10 3 0 8 -4 11
-10z m585 -79 c0 -6 -4 -12 -8 -15 -5 -3 -9 1 -9 9 0 8 4 15 9 15 4 0 8 -4 8
-9z m-500 -31 c0 -5 -5 -10 -11 -10 -5 0 -7 5 -4 10 3 6 8 10 11 10 2 0 4 -4
4 -10z m544 -56 c9 -3 16 -10 16 -16 0 -5 -4 -6 -10 -3 -5 3 -10 1 -10 -6 0
-8 -3 -9 -13 0 -8 6 -16 8 -19 5 -3 -3 -9 0 -14 7 -4 7 -3 10 4 5 6 -3 13 -2
17 4 7 12 8 12 29 4z m16 -158 c0 -3 -4 -8 -10 -11 -5 -3 -10 -1 -10 4 0 6 5
11 10 11 6 0 10 -2 10 -4z m-60 -36 c0 -5 -4 -10 -10 -10 -5 0 -10 -5 -10 -11
0 -5 4 -8 9 -4 5 3 12 1 15 -4 4 -5 -2 -8 -11 -7 -10 2 -18 8 -17 14 2 27 4
32 14 32 6 0 10 -4 10 -10z m-1125 -20 c3 -6 -1 -7 -9 -4 -18 7 -21 14 -7 14
6 0 13 -4 16 -10z m1000 -19 c-3 -5 -1 -12 5 -16 15 -10 0 -27 -17 -21 -9 4
-23 1 -31 -6 -12 -10 -14 -10 -8 0 4 7 2 12 -4 12 -6 0 -8 5 -4 11 4 8 9 7 15
-2 7 -12 9 -12 9 0 0 11 3 11 16 0 15 -12 16 -11 10 9 -5 14 -3 22 4 22 6 0 9
-4 5 -9z m861 -27 c1 -9 0 -13 -4 -10 -3 4 -7 14 -8 22 -1 9 0 13 4 10 3 -4 7
-14 8 -22z m-1038 -39 c-3 -3 -9 2 -12 12 -6 14 -5 15 5 6 7 -7 10 -15 7 -18z
m-106 -17 c-9 -9 -15 -9 -24 1 -11 11 -10 13 5 8 10 -4 17 -2 17 5 0 6 3 8 7
5 4 -4 1 -13 -5 -19z m-537 3 c3 -5 2 -12 -3 -15 -5 -3 -9 1 -9 9 0 17 3 19
12 6z m400 -1 c3 -5 1 -10 -4 -10 -6 0 -11 5 -11 10 0 6 2 10 4 10 3 0 8 -4
11 -10z m-432 -20 c9 -11 13 -20 7 -20 -5 0 -14 9 -20 20 -6 11 -9 20 -8 20 2
0 11 -9 21 -20z m207 -5 c0 -2 -6 -5 -13 -8 -8 -3 -14 1 -14 8 0 7 6 11 14 8
7 -3 13 -6 13 -8z m280 1 c0 -2 -7 -7 -16 -10 -8 -3 -12 -2 -9 4 6 10 25 14
25 6z m1167 -511 c0 -8 -4 -12 -9 -9 -5 3 -6 10 -3 15 9 13 12 11 12 -6z m-57
-25 c0 -5 -5 -10 -11 -10 -5 0 -7 5 -4 10 3 6 8 10 11 10 2 0 4 -4 4 -10z"/>
<path d="M3644 4152 c4 -7 2 -12 -4 -12 -6 0 -8 -6 -4 -12 4 -7 -2 -5 -13 5
-16 14 -23 15 -29 6 -4 -8 -3 -10 4 -5 7 4 12 3 12 -3 0 -6 -12 -8 -32 -4 -27
5 -30 4 -25 -11 4 -10 3 -15 -4 -11 -5 4 -17 1 -26 -7 -12 -9 -15 -9 -9 0 4 6
2 12 -3 12 -6 0 -11 -6 -11 -12 0 -10 -2 -10 -9 0 -6 11 -10 10 -15 -3 -5 -15
-9 -15 -23 -4 -14 12 -16 12 -8 0 6 -11 4 -13 -10 -7 -15 5 -16 4 -5 -9 11
-13 10 -14 -5 -9 -10 4 -21 1 -26 -7 -7 -11 -9 -11 -9 -1 0 9 -7 11 -22 6 -24
-7 -50 -29 -43 -36 3 -3 -2 -5 -10 -5 -8 0 -12 5 -9 11 3 6 -4 0 -15 -14 -13
-15 -19 -18 -15 -8 5 15 3 15 -19 5 -14 -6 -23 -16 -19 -22 3 -5 -3 -3 -13 5
-17 14 -18 13 -13 -2 5 -11 2 -15 -10 -13 -9 1 -16 8 -14 15 1 6 -2 9 -8 5 -6
-3 -8 -11 -5 -16 4 -5 0 -9 -9 -9 -8 0 -17 6 -20 13 -3 6 -3 2 -1 -10 3 -12 0
-25 -6 -29 -8 -4 -9 -3 -5 4 4 7 2 12 -3 12 -6 0 -11 -6 -11 -12 0 -9 -4 -8
-10 2 -7 12 -10 12 -10 1 0 -8 -6 -11 -16 -7 -12 5 -15 2 -10 -11 5 -15 4 -15
-9 1 -9 12 -15 15 -15 7 0 -9 -8 -11 -21 -8 -16 4 -18 3 -9 -8 7 -8 7 -15 1
-19 -5 -3 -11 0 -14 6 -3 10 -8 10 -18 -1 -12 -12 -12 -13 1 -7 9 5 9 2 -2 -7
-10 -8 -14 -18 -10 -22 4 -5 1 -5 -6 -1 -7 4 -10 12 -7 17 4 5 1 9 -4 9 -6 0
-11 -7 -11 -16 0 -10 -6 -14 -14 -11 -8 3 -20 -1 -26 -8 -7 -8 -17 -12 -23 -8
-6 3 -7 1 -3 -6 4 -6 11 -9 15 -6 5 2 13 -7 19 -20 6 -14 8 -24 4 -24 -19 3
-23 -2 -13 -15 9 -11 6 -12 -16 -9 l-28 4 25 -16 c14 -9 17 -14 8 -11 -10 3
-17 2 -17 -2 1 -4 0 -9 -1 -12 -7 -16 -5 -80 2 -80 5 0 6 5 3 10 -3 6 -2 10 3
10 6 0 12 -7 16 -15 3 -8 2 -14 -2 -14 -19 3 -22 -3 -12 -21 8 -16 7 -23 -9
-37 -20 -17 -19 -33 2 -33 7 0 6 4 -3 10 -12 8 -11 10 8 10 14 0 22 6 23 18 0
11 2 12 6 4 3 -7 -1 -19 -7 -28 -7 -8 -10 -17 -6 -21 3 -3 6 -1 6 5 0 6 7 9
17 5 10 -4 14 -2 10 4 -4 6 1 17 10 24 15 12 16 12 8 -1 -10 -15 -11 -20 -14
-41 0 -5 -5 -8 -10 -4 -5 3 -13 0 -17 -6 -4 -8 -3 -9 4 -5 7 4 12 1 12 -6 0
-7 9 -2 19 12 11 13 17 29 14 35 -3 5 0 4 7 -2 15 -14 25 -57 12 -49 -4 2 -14
0 -22 -5 -13 -8 -13 -10 -1 -18 8 -5 22 -6 30 -2 9 5 21 6 27 4 6 -2 14 4 18
13 5 14 4 15 -8 5 -13 -11 -13 -9 -3 13 8 17 13 21 15 11 2 -8 8 -13 13 -9 5
3 6 10 3 16 -4 7 -2 8 5 4 6 -4 9 -11 7 -15 -3 -4 12 -7 33 -7 21 1 38 6 39
11 5 46 21 71 17 26 -2 -27 -1 -28 16 -18 11 7 19 16 19 20 0 5 7 7 15 4 8 -4
17 -2 21 4 3 6 12 8 20 5 8 -3 11 0 8 8 -7 18 12 30 22 15 5 -8 3 -9 -6 -4 -8
5 -11 4 -7 -3 8 -12 32 -10 44 3 4 4 3 5 -3 2 -6 -4 -16 6 -23 21 -11 25 -10
26 4 8 8 -11 15 -16 15 -12 0 5 6 3 13 -3 14 -11 27 -5 27 13 0 6 -5 4 -10 -4
-6 -9 -10 -10 -10 -3 0 16 17 26 25 13 3 -5 11 -10 16 -10 6 0 7 6 3 13 -5 8
-2 8 9 -2 9 -7 17 -10 17 -6 0 4 7 2 15 -5 22 -18 0 -43 -25 -30 -13 7 -21 7
-25 0 -4 -6 -11 -7 -17 -4 -7 4 -8 2 -4 -4 8 -13 -26 -34 -46 -29 -7 2 -10 2
-5 0 4 -3 4 -10 1 -15 -4 -7 -2 -8 4 -4 7 4 12 2 12 -5 0 -6 -8 -9 -19 -6 -15
3 -18 1 -14 -11 5 -11 3 -13 -6 -7 -7 4 -5 -5 5 -21 17 -25 17 -27 2 -22 -12
5 -15 3 -12 -7 3 -8 11 -12 19 -9 7 3 15 -2 19 -12 5 -14 4 -15 -9 -4 -13 10
-15 9 -15 -9 0 -12 5 -19 10 -16 6 3 10 2 10 -3 0 -6 -7 -13 -16 -16 -8 -3
-12 -10 -9 -16 6 -9 -8 -15 -29 -11 -5 1 -4 -5 4 -13 7 -9 10 -16 6 -16 -3 0
-1 -11 4 -25 8 -20 7 -23 -8 -19 -9 3 -6 -1 8 -9 14 -9 29 -13 34 -10 5 4 6 1
2 -6 -4 -6 -11 -9 -16 -6 -5 3 -12 0 -16 -6 -4 -8 -3 -9 4 -5 7 4 12 1 12 -6
0 -8 3 -9 8 -3 4 6 18 19 32 30 l25 20 -19 -23 c-20 -23 -20 -23 2 -29 12 -3
19 -10 16 -15 -3 -5 -13 -3 -23 6 -16 15 -18 14 -16 -4 1 -11 5 -23 10 -27 4
-5 4 -2 0 6 -6 11 -4 13 8 8 9 -3 23 1 32 9 20 20 20 6 0 -16 -14 -15 -13 -18
11 -28 14 -7 23 -8 19 -3 -3 5 -1 12 5 16 5 3 10 1 10 -6 0 -7 3 -9 7 -6 3 4
12 2 20 -5 11 -9 13 -8 11 3 -2 8 -7 17 -13 21 -14 10 38 4 54 -6 11 -7 11 -4
1 14 -8 15 -8 20 -1 16 23 -15 50 -14 63 2 11 13 11 15 -2 8 -8 -4 -6 0 5 9
18 14 21 14 34 -2 13 -17 13 -17 8 0 -4 11 -1 20 8 23 8 4 12 10 9 15 -3 5 2
9 11 9 10 0 13 -5 9 -12 -5 -7 -3 -8 7 -2 8 5 17 9 21 9 3 0 10 4 15 9 4 5 3
6 -4 2 -14 -8 -28 10 -14 18 5 4 13 1 17 -5 4 -8 9 -7 16 2 6 10 7 7 3 -8 -4
-16 -2 -23 7 -23 10 0 9 -3 -2 -10 -10 -6 -11 -10 -2 -10 7 0 12 -14 12 -34 0
-22 6 -36 16 -40 15 -6 15 -4 3 11 -12 16 -12 17 2 6 9 -7 19 -10 23 -6 4 4 4
0 0 -10 -3 -9 -11 -17 -17 -17 -6 0 -8 -3 -5 -6 4 -3 15 -1 25 5 14 7 20 7 20
-2 0 -7 4 -21 8 -32 5 -16 5 -17 -4 -5 -6 8 -11 10 -11 4 0 -18 13 -24 27 -13
10 9 13 7 13 -9 0 -12 4 -24 10 -27 6 -3 7 1 4 10 -4 11 -2 14 9 9 8 -3 18 0
23 7 4 7 3 10 -4 5 -6 -3 -13 -2 -16 3 -4 5 5 8 19 7 13 -2 22 1 19 5 -3 5
-11 9 -19 9 -8 0 -17 4 -20 10 -4 7 3 7 20 0 35 -13 35 -13 35 12 0 21 0 21
14 3 13 -18 14 -18 9 8 -3 17 -1 27 6 27 7 0 9 -6 5 -12 -4 -7 4 -3 18 10 13
12 28 19 32 15 4 -4 4 1 0 11 -5 12 -4 17 3 13 5 -3 10 0 10 8 0 8 -5 12 -11
9 -6 -3 -3 1 6 8 15 13 15 15 0 24 -13 9 -13 12 -2 19 9 6 11 4 5 -5 -5 -8 -4
-11 3 -6 6 4 9 13 6 21 -4 8 -10 12 -15 9 -5 -3 -9 0 -9 5 0 6 5 11 10 11 6 0
10 5 10 11 0 5 -4 8 -9 5 -10 -7 -9 20 2 30 12 12 8 26 -5 18 -7 -5 -8 -3 -2
7 12 20 14 39 3 39 -5 0 -9 5 -9 10 0 6 3 9 8 9 20 -3 22 3 6 18 -11 11 -13
18 -5 21 12 4 15 32 3 32 -10 0 -9 71 1 88 5 7 3 12 -5 12 -9 0 -9 3 2 10 10
6 11 10 3 10 -20 0 -15 30 5 30 11 1 6 6 -13 15 -16 7 -24 14 -17 14 7 1 11 5
7 10 -3 5 2 17 11 25 8 9 11 16 5 16 -13 0 -10 22 4 33 6 5 4 7 -5 4 -8 -2
-14 -10 -12 -16 1 -6 -2 -11 -8 -11 -23 0 -4 50 19 51 10 0 12 2 3 6 -7 3 -19
-1 -28 -7 -12 -11 -13 -10 -8 4 4 10 1 16 -7 16 -9 0 -10 3 -3 8 20 14 25 42
6 42 -10 0 -13 3 -7 8 6 4 11 14 13 22 3 12 1 13 -9 3 -16 -16 -29 -17 -29 -2
0 5 5 7 11 3 7 -4 10 -1 7 7 -3 8 -11 13 -17 11 -7 -1 -10 2 -6 7 3 6 13 8 23
5 10 -4 13 -3 6 3 -6 4 -10 16 -8 26 1 9 -2 14 -8 11 -5 -3 -9 2 -8 12 4 35 0
41 -30 48 -16 3 -30 11 -30 17 0 8 4 8 15 -1 9 -7 18 -10 22 -6 3 3 1 6 -6 6
-7 0 -9 5 -6 10 4 6 3 10 -2 9 -22 -4 -44 2 -38 10 8 13 -12 24 -27 14 -18
-11 -50 -4 -64 15 -9 12 -13 12 -19 2 -5 -8 -4 -11 1 -7 6 3 11 -4 11 -16 2
-20 1 -20 -8 -4 -6 9 -15 14 -21 11 -7 -5 -8 -2 -3 6 5 8 3 11 -6 8 -8 -3 -13
-11 -11 -17 1 -7 -2 -10 -8 -6 -6 3 -8 10 -5 15 3 5 0 12 -6 16 -8 4 -9 3 -5
-4z m166 -26 c0 -3 -4 -8 -10 -11 -5 -3 -10 -1 -10 4 0 6 5 11 10 11 6 0 10
-2 10 -4z m-27 -31 c4 -8 3 -16 -1 -19 -4 -3 -9 4 -9 15 -2 23 3 25 10 4z
m-413 -50 c-7 -9 -15 -13 -19 -10 -3 3 1 10 9 15 21 14 24 12 10 -5z m515 6
c3 -5 2 -12 -3 -15 -5 -3 -9 1 -9 9 0 17 3 19 12 6z m10 -59 c-3 -3 -16 5 -28
17 l-22 23 28 -17 c15 -10 25 -20 22 -23z m-945 -132 c0 -7 -13 -7 -38 -1 -2
1 -1 5 3 11 6 10 35 2 35 -10z m-36 -122 c-3 -5 -1 -15 6 -23 8 -10 8 -15 -2
-21 -7 -4 -10 -4 -6 1 10 10 -11 37 -23 29 -5 -3 -6 1 -3 9 2 7 11 14 19 14 8
0 12 -4 9 -9z m631 -10 c-6 -23 -6 -23 11 -3 12 14 15 15 11 4 -3 -9 0 -23 6
-30 8 -8 5 -8 -7 1 -18 14 -19 13 -13 -3 4 -10 3 -16 -2 -12 -5 3 -12 1 -16
-5 -4 -6 -11 -8 -16 -5 -5 4 -9 1 -9 -4 0 -6 -5 -11 -12 -11 -6 0 -8 3 -5 7 4
3 2 12 -5 20 -6 7 -8 16 -4 20 3 3 6 1 6 -6 0 -7 5 -9 10 -6 6 4 8 11 5 16 -3
5 0 6 8 3 9 -3 16 3 20 15 3 12 8 21 12 21 3 0 4 -10 0 -22z m-73 -60 c-16 -6
-16 -7 0 -7 9 -1 19 -5 23 -10 3 -6 -5 -8 -19 -5 -14 2 -28 0 -31 -6 -4 -7
-14 -6 -28 2 -12 7 -25 11 -29 10 -4 -1 -5 5 -1 13 5 14 7 13 18 -2 11 -15 12
-14 10 10 -2 15 1 25 6 21 5 -3 7 -9 5 -13 -3 -4 2 -8 10 -8 9 0 13 6 10 14
-3 8 -1 11 4 8 6 -3 10 -1 10 6 0 7 6 4 14 -7 13 -17 13 -20 -2 -26z m-232
-52 c0 -2 -6 -9 -14 -15 -11 -9 -16 -9 -22 0 -4 7 -3 9 4 5 6 -3 13 -2 17 4 6
10 15 14 15 6z m-60 -26 c-6 -11 -13 -20 -16 -20 -2 0 0 9 6 20 6 11 13 20 16
20 2 0 0 -9 -6 -20z m195 10 c4 -6 1 -9 -7 -8 -7 2 -12 -3 -10 -10 1 -8 -2
-11 -8 -7 -8 5 -7 11 1 21 14 17 16 17 24 4z m-368 -52 c-3 -8 -6 -5 -6 6 -1
11 2 17 5 13 3 -3 4 -12 1 -19z m297 -57 c-2 -3 -12 3 -22 13 -16 17 -16 18 5
5 12 -7 20 -15 17 -18z m-29 -133 c-19 -11 -19 -11 0 -20 19 -7 19 -8 1 -5
-28 3 -30 37 -3 37 21 -1 21 -1 2 -12z m125 -126 c0 -8 -1 -13 -3 -11 -1 2 -9
12 -16 22 -12 15 -12 17 3 11 9 -3 16 -13 16 -22z m114 10 c3 -5 -1 -9 -9 -9
-8 0 -12 4 -9 9 3 4 7 8 9 8 2 0 6 -4 9 -8z m421 -12 c-3 -5 -12 -10 -18 -10
-7 0 -6 4 3 10 19 12 23 12 15 0z m-81 -48 c3 -5 -1 -9 -9 -9 -8 0 -12 4 -9 9
3 4 7 8 9 8 2 0 6 -4 9 -8z m-63 -19 c13 -16 12 -17 -3 -4 -17 13 -22 21 -14
21 2 0 10 -8 17 -17z"/>
<path d="M3506 3692 c-3 -5 1 -9 9 -9 8 0 12 4 9 9 -3 4 -7 8 -9 8 -2 0 -6 -4
-9 -8z"/>
<path d="M3740 4146 c0 -2 9 -6 20 -9 11 -3 20 -1 20 4 0 5 -9 9 -20 9 -11 0
-20 -2 -20 -4z"/>
<path d="M2550 4001 c0 -6 4 -12 8 -15 5 -3 9 1 9 9 0 8 -4 15 -9 15 -4 0 -8
-4 -8 -9z"/>
<path d="M2585 3910 c-3 -6 1 -7 9 -4 18 7 21 14 7 14 -6 0 -13 -4 -16 -10z"/>
<path d="M2034 3848 c-4 -7 -4 -10 1 -6 4 4 15 2 24 -5 14 -11 14 -10 2 6 -16
20 -18 21 -27 5z"/>
<path d="M2890 3825 c0 -8 -5 -15 -12 -15 -6 0 -8 -3 -5 -6 8 -8 37 14 37 27
0 5 -4 9 -10 9 -5 0 -10 -7 -10 -15z"/>
<path d="M1655 3780 c3 -4 14 -10 25 -13 11 -3 18 -2 15 3 -3 4 -14 10 -25 13
-11 3 -18 2 -15 -3z"/>
<path d="M1556 3733 c-6 -14 -5 -15 5 -6 7 7 10 15 7 18 -3 3 -9 -2 -12 -12z"/>
<path d="M2853 3705 c0 -8 4 -12 9 -9 5 3 6 10 3 15 -9 13 -12 11 -12 -6z"/>
<path d="M2277 3679 c7 -7 15 -10 18 -7 3 3 -2 9 -12 12 -14 6 -15 5 -6 -5z"/>
<path d="M2676 3647 c3 -10 9 -15 12 -12 3 3 0 11 -7 18 -10 9 -11 8 -5 -6z"/>
<path d="M2858 3622 c4 -10 7 -12 10 -4 2 7 9 9 15 5 7 -3 8 -2 4 2 -14 16
-36 14 -29 -3z"/>
<path d="M3386 3618 c3 -5 10 -6 15 -3 13 9 11 12 -6 12 -8 0 -12 -4 -9 -9z"/>
<path d="M2316 3602 c-3 -5 1 -9 9 -9 8 0 15 4 15 9 0 4 -4 8 -9 8 -6 0 -12
-4 -15 -8z"/>
<path d="M3050 3519 c0 -5 5 -7 10 -4 6 3 10 8 10 11 0 2 -4 4 -10 4 -5 0 -10
-5 -10 -11z"/>
<path d="M3235 3461 c-3 -5 -1 -12 5 -16 14 -9 2 -27 -13 -19 -7 3 -4 -1 5 -9
10 -8 14 -18 10 -23 -4 -4 1 -2 11 5 19 15 24 26 6 15 -8 -4 -9 0 -4 15 4 13
2 21 -5 21 -6 0 -8 5 -5 10 3 6 4 10 1 10 -3 0 -7 -4 -11 -9z"/>
<path d="M1910 3400 c0 -5 5 -10 11 -10 5 0 7 5 4 10 -3 6 -8 10 -11 10 -2 0
-4 -4 -4 -10z"/>
<path d="M868 3363 c7 -3 16 -2 19 1 4 3 -2 6 -13 5 -11 0 -14 -3 -6 -6z"/>
<path d="M1710 3351 c0 -6 4 -12 8 -15 5 -3 9 1 9 9 0 8 -4 15 -9 15 -4 0 -8
-4 -8 -9z"/>
<path d="M1230 3281 c0 -25 6 -27 13 -6 4 8 2 17 -3 20 -6 4 -10 -3 -10 -14z"/>
<path d="M1134 3279 c-4 -7 -3 -9 4 -5 5 3 13 0 15 -6 4 -9 6 -10 6 -1 1 17
-16 25 -25 12z"/>
<path d="M3585 2971 c-6 -20 -20 -22 -44 -7 -11 7 -13 5 -8 -6 4 -12 1 -14
-14 -11 -10 3 -27 2 -36 -2 -28 -12 -44 -14 -38 -5 3 5 0 12 -6 16 -7 4 -9 3
-5 -4 3 -6 -3 -13 -14 -17 -11 -3 -20 -11 -20 -17 0 -6 -6 -6 -15 2 -13 11
-14 10 -8 -6 6 -16 5 -17 -9 -6 -11 9 -18 10 -23 2 -3 -6 -11 -7 -17 -4 -7 4
-8 2 -4 -5 6 -9 12 -9 24 1 15 12 16 11 3 -5 -8 -10 -20 -16 -28 -13 -7 3 -13
0 -13 -7 0 -8 -4 -6 -10 3 -7 11 -10 11 -10 2 0 -8 -5 -10 -12 -6 -7 5 -9 2
-5 -9 4 -12 1 -15 -14 -12 -11 2 -17 0 -14 -4 2 -5 -2 -14 -10 -21 -13 -11
-15 -10 -9 6 5 18 5 18 -6 1 -6 -9 -15 -15 -21 -12 -5 4 -9 1 -9 -4 0 -6 4
-11 10 -11 5 0 3 -8 -5 -17 -8 -10 -22 -27 -31 -38 -8 -11 -13 -15 -10 -8 4 6
2 14 -3 17 -5 4 -8 -5 -6 -19 2 -22 0 -23 -13 -13 -13 11 -14 10 -3 -10 13
-24 7 -42 -14 -42 -7 0 -15 -7 -19 -15 -3 -8 -1 -15 4 -15 5 0 -2 -12 -15 -26
-13 -14 -21 -32 -18 -41 3 -8 0 -19 -8 -24 -12 -7 -12 -9 0 -9 11 0 11 -3 0
-17 -12 -15 -12 -16 1 -8 9 5 7 -1 -5 -15 -11 -13 -14 -20 -7 -16 6 4 12 3 12
-3 0 -5 -8 -12 -17 -14 -13 -3 -11 -5 6 -6 23 -1 23 -1 4 -18 -10 -10 -14 -15
-8 -11 6 4 11 -1 11 -13 0 -17 -8 -23 -27 -21 -6 1 -4 -24 5 -66 5 -21 3 -22
-12 -10 -15 12 -15 10 1 -14 13 -20 14 -28 5 -28 -8 -1 -5 -7 7 -16 19 -16 19
-16 -5 -10 l-25 7 25 -15 c14 -9 19 -15 13 -16 -7 0 -13 -5 -13 -11 0 -5 4 -8
9 -5 14 9 31 -40 19 -52 -8 -8 -4 -14 14 -21 13 -5 25 -16 25 -25 0 -8 -5 -12
-11 -9 -6 4 -5 0 1 -9 7 -8 9 -19 5 -24 -4 -5 2 -1 14 9 17 14 21 14 21 2 0
-8 -4 -12 -9 -9 -4 3 -8 0 -8 -5 0 -6 8 -11 18 -12 15 0 14 -2 -3 -10 -17 -7
-16 -8 9 -6 19 1 31 -3 33 -13 4 -13 3 -13 -6 0 -6 8 -11 10 -11 4 0 -18 12
-25 25 -14 9 8 12 4 9 -16 -1 -14 1 -23 4 -19 4 4 7 11 7 16 0 5 5 9 10 8 6 0
9 -6 7 -14 -3 -16 6 -22 41 -29 15 -2 32 -8 38 -12 8 -4 9 -3 5 4 -11 18 5 14
28 -5 20 -17 20 -17 6 1 -9 12 -10 17 -3 12 7 -4 22 -2 34 5 12 6 19 7 15 1
-3 -5 1 -12 8 -15 11 -4 14 0 11 16 -4 21 -3 21 10 4 13 -18 13 -18 18 0 4 16
5 16 6 1 0 -10 6 -18 12 -18 5 0 7 6 3 13 -6 9 -4 9 7 1 12 -9 21 -10 45 -5 4
0 -2 13 -12 29 -14 22 -15 25 -1 14 9 -8 22 -10 29 -6 19 12 58 14 58 3 0 -6
-5 -7 -12 -3 -7 5 -8 3 -3 -5 5 -9 11 -9 17 -3 6 6 18 8 27 5 9 -4 5 3 -8 14
-17 14 -21 22 -12 27 7 5 10 2 9 -5 -2 -7 5 -15 16 -17 11 -2 16 0 12 6 -3 6
-1 14 5 18 8 4 9 3 5 -4 -9 -15 26 -33 43 -22 8 4 10 13 6 21 -5 8 1 5 12 -6
11 -11 18 -24 15 -29 -3 -5 0 -6 7 -2 8 6 9 12 2 20 -8 9 -7 13 4 13 8 0 11
-5 8 -10 -4 -7 1 -8 12 -3 16 6 16 4 4 -11 -13 -15 -12 -16 9 -11 12 4 28 1
35 -6 7 -7 19 -11 27 -9 12 4 12 3 1 -5 -10 -7 -10 -11 -1 -17 6 -4 9 -14 6
-22 -4 -11 -2 -13 9 -9 13 5 14 2 4 -16 -10 -18 -9 -20 7 -14 17 5 17 5 3 -6
-8 -7 -18 -23 -21 -36 -6 -20 -4 -22 10 -10 14 11 14 8 -2 -16 -10 -16 -14
-26 -8 -22 6 4 8 -2 5 -14 -3 -11 -10 -20 -15 -20 -5 0 -6 5 -2 12 4 6 3 8 -3
5 -11 -7 -11 -43 0 -53 15 -15 6 -26 -10 -13 -11 10 -14 10 -9 2 4 -7 2 -13
-3 -13 -6 0 -11 -7 -11 -16 0 -10 -5 -14 -15 -10 -13 5 -14 2 -4 -15 8 -15 8
-19 0 -15 -6 4 -11 2 -11 -4 0 -6 -5 -8 -10 -5 -6 4 -17 1 -25 -5 -8 -7 -15
-9 -15 -4 0 5 -13 9 -29 9 -16 1 -28 -2 -25 -6 2 -4 -3 -9 -11 -13 -8 -3 -14
-2 -14 2 3 19 -2 23 -16 12 -8 -7 -15 -8 -15 -3 0 5 -20 9 -45 9 -48 -1 -52 2
-32 23 10 11 8 11 -11 2 -18 -10 -23 -9 -28 4 -3 8 -10 15 -16 15 -5 0 -7 -4
-4 -8 3 -5 -1 -9 -8 -9 -8 0 -11 8 -8 19 6 24 -26 25 -43 1 -11 -15 -12 -13
-9 16 2 18 7 37 10 43 4 7 2 8 -4 4 -8 -5 -12 0 -12 13 0 12 1 23 3 25 1 2 -6
12 -15 22 -9 11 -18 24 -20 29 -2 6 -9 9 -15 9 -12 -2 -17 10 -14 29 1 5 -3 6
-8 2 -6 -3 -8 -11 -5 -18 3 -8 -5 -14 -21 -15 -49 -3 -52 -5 -48 -26 4 -20 4
-20 -10 -3 -10 12 -17 14 -22 8 -3 -6 -1 -11 5 -11 6 0 8 -5 4 -12 -5 -8 -11
-6 -19 6 -11 15 -13 15 -19 1 -3 -9 -10 -14 -15 -10 -9 5 -28 -78 -23 -97 1
-5 -4 -8 -11 -8 -8 0 -7 -3 3 -10 15 -10 23 -80 8 -80 -5 0 -7 4 -4 9 3 5 -1
11 -9 14 -18 8 -8 -23 14 -40 9 -6 13 -15 8 -19 -4 -4 -7 -2 -7 4 0 7 -5 12
-11 12 -5 0 -7 -5 -4 -10 3 -6 2 -10 -4 -10 -6 0 -7 -7 -4 -17 5 -12 3 -14 -7
-8 -9 5 -11 4 -6 -4 4 -6 11 -9 15 -7 4 3 13 1 21 -4 12 -7 11 -13 -5 -31 -11
-12 -14 -19 -6 -14 10 6 12 2 7 -16 -3 -13 -3 -18 0 -11 9 19 20 14 21 -10 2
-24 42 -60 57 -51 5 3 6 1 2 -6 -6 -8 -12 -9 -20 -2 -9 8 -13 7 -13 -4 0 -8 4
-12 9 -9 4 3 8 -2 8 -10 0 -9 9 -16 20 -16 11 0 19 -5 18 -11 -2 -6 6 -13 16
-15 11 -1 29 -13 40 -25 l21 -23 -21 17 c-19 16 -22 16 -28 2 -3 -10 -2 -14 5
-9 6 3 22 -5 36 -17 15 -13 23 -18 19 -11 -4 7 -1 12 9 12 10 0 13 -5 9 -12
-5 -8 0 -7 11 2 14 11 17 12 11 1 -6 -9 -5 -12 5 -9 8 3 13 10 12 16 -3 11 43
9 54 -2 4 -3 -4 -5 -18 -4 -16 2 -23 -2 -21 -10 1 -8 -2 -11 -8 -7 -5 3 -10 1
-10 -4 0 -6 9 -11 20 -11 11 0 20 -4 20 -8 0 -5 6 -9 14 -9 8 0 12 6 9 14 -3
7 -9 11 -13 8 -5 -3 -11 -1 -15 4 -3 6 4 8 17 6 12 -3 25 -11 30 -18 5 -9 21
-13 42 -11 21 1 40 -3 47 -12 6 -7 16 -11 23 -7 17 11 48 14 42 5 -6 -10 45
-9 62 2 7 4 12 13 11 19 0 9 -2 9 -6 0 -2 -7 -9 -13 -15 -13 -6 0 -6 6 2 15 7
8 16 12 21 9 5 -3 9 1 9 8 0 9 3 9 10 -2 5 -8 23 -15 39 -16 16 0 28 3 25 7
-2 4 -13 6 -24 4 -11 -2 -22 0 -25 4 -6 11 48 7 66 -5 12 -6 12 -5 1 8 -10 13
-10 18 -1 24 8 4 9 3 5 -4 -5 -8 1 -12 15 -12 17 0 20 4 16 21 -3 12 -3 18 0
15 4 -3 17 1 30 9 13 9 29 13 35 9 7 -5 9 -2 6 8 -4 9 4 21 23 32 16 9 29 23
29 30 0 8 7 17 16 20 9 3 12 11 8 18 -5 9 -2 8 9 -1 15 -12 17 -12 11 4 -5 12
-4 16 3 12 6 -4 10 1 9 11 0 10 5 16 13 14 12 -3 12 0 1 13 -11 13 -10 14 5 9
13 -5 16 -4 11 4 -4 7 -2 12 5 12 9 0 9 3 0 14 -10 12 -9 13 7 9 11 -2 23 0
26 6 4 6 3 11 -1 11 -5 0 -9 11 -9 25 0 15 5 24 11 21 7 -2 12 2 12 9 0 8 -7
11 -15 7 -10 -3 -13 -1 -8 6 4 7 15 12 24 12 15 1 14 3 -3 16 -20 16 -20 16 1
10 18 -6 21 -3 19 18 -2 14 -7 31 -11 38 -5 9 -1 8 11 -2 17 -14 18 -14 5 9
-11 22 -10 23 5 17 16 -6 16 -4 4 11 -12 15 -12 16 3 10 13 -4 15 -2 11 10 -4
11 -2 14 5 9 15 -9 3 24 -15 43 -12 11 -11 17 4 34 13 15 14 18 3 13 -8 -4 -6
0 4 8 11 9 14 16 8 16 -7 0 -12 5 -12 11 0 5 4 7 10 4 6 -4 7 2 2 17 -5 13 -8
40 -7 60 1 20 -2 35 -6 33 -4 -3 -9 4 -12 15 -6 22 8 28 16 8 4 -8 6 -7 6 3 1
9 -5 19 -12 22 -10 4 -15 54 -7 65 2 1 3 8 4 15 1 6 8 11 15 9 7 -1 10 2 6 8
-5 8 -11 8 -21 0 -11 -10 -13 -6 -9 25 3 22 1 34 -5 30 -5 -3 -8 7 -5 25 2 17
0 28 -6 24 -5 -3 -7 -10 -4 -15 4 -5 1 -9 -6 -9 -6 0 -9 8 -6 20 3 12 1 18 -5
14 -6 -4 -8 1 -3 15 4 13 2 21 -5 21 -6 0 -8 -5 -4 -12 6 -10 4 -10 -8 0 -9 7
-15 22 -13 32 2 11 -1 19 -8 17 -7 -1 -11 4 -9 12 3 12 1 12 -14 0 -12 -9 -15
-9 -10 -1 4 7 2 12 -4 12 -6 0 -8 5 -4 12 5 7 0 9 -14 6 -14 -4 -19 -2 -16 7
3 6 -2 18 -11 25 -10 8 -15 9 -15 1 0 -15 -13 -14 -36 4 -13 11 -14 14 -4 13
8 -2 19 -7 23 -13 5 -6 7 -5 5 3 -2 8 -8 14 -13 14 -6 0 -18 4 -27 9 -13 7
-16 6 -12 -5 3 -8 0 -17 -7 -22 -7 -4 -10 -3 -6 4 9 14 -3 43 -14 36 -5 -3 -7
-11 -3 -17 3 -7 -1 -4 -9 5 -10 13 -16 15 -25 6 -9 -9 -12 -9 -12 1 0 11 -3
11 -15 1 -11 -9 -15 -9 -15 -1 0 8 -5 9 -18 2 -13 -7 -22 -7 -30 1 -8 8 -15 8
-27 -2 -12 -10 -15 -10 -15 0 0 10 -3 10 -15 0 -11 -9 -15 -9 -15 -1 0 7 -5 9
-10 6 -6 -4 -8 -10 -6 -14 3 -4 -1 -8 -8 -8 -8 0 -12 7 -9 16 3 12 1 11 -11
-3 -8 -10 -13 -23 -10 -27 3 -5 -2 -6 -10 -3 -8 3 -13 13 -10 22 3 9 -1 7 -8
-6 -11 -18 -16 -20 -27 -10 -8 8 -11 8 -8 2 4 -7 0 -15 -9 -18 -10 -4 -13 -2
-9 7 4 6 -4 1 -16 -13 -14 -16 -20 -19 -16 -8 3 10 2 20 -4 23 -5 4 -8 1 -7
-6 2 -6 -3 -14 -10 -16 -8 -3 -10 2 -6 14 5 15 3 15 -8 -2 -16 -25 -38 -30
-49 -13 -7 10 -9 10 -9 -1 0 -9 -7 -6 -20 9 -19 21 -19 25 -5 47 9 13 13 28 9
34 -4 7 2 7 16 -1 12 -7 20 -8 16 -2 -3 5 1 12 9 16 8 3 15 0 15 -7 0 -8 4 -7
9 3 6 8 8 17 6 20 -2 4 2 7 10 7 8 0 12 -4 9 -8 -2 -4 0 -11 6 -14 6 -4 10 -3
9 2 -5 27 2 33 21 23 16 -9 20 -8 20 5 0 9 5 13 10 10 6 -4 8 -10 5 -15 -3 -4
4 -6 15 -3 11 3 18 9 15 13 -7 11 22 6 32 -5 4 -4 2 -5 -6 0 -9 5 -12 4 -8 -3
4 -5 16 -8 27 -5 11 3 18 8 16 12 -3 4 5 8 17 8 17 2 18 0 7 -7 -8 -5 -12 -12
-8 -15 3 -3 13 1 22 10 15 15 16 15 17 -2 0 -11 3 -13 6 -5 4 10 8 10 19 1 20
-16 17 0 -3 25 -18 21 -18 21 3 3 11 -9 24 -14 29 -10 4 5 5 2 1 -5 -6 -10 1
-12 28 -10 20 1 36 6 36 10 0 4 5 8 11 8 5 0 8 -4 5 -9 -3 -5 2 -15 11 -22 14
-12 16 -12 8 1 -6 12 -5 13 6 3 14 -14 53 -18 45 -5 -3 5 1 9 9 9 12 0 12 -4
-2 -19 -10 -11 -13 -19 -8 -18 6 2 15 1 20 0 6 -1 18 -3 27 -4 10 0 18 -5 19
-11 0 -5 7 -14 15 -18 8 -5 11 -13 8 -19 -4 -7 -2 -8 5 -4 9 6 9 11 -1 23 -11
14 -9 14 19 0 17 -9 35 -23 39 -29 6 -10 4 -11 -7 0 -7 6 -18 12 -23 12 -6 0
-3 -5 6 -11 9 -5 16 -15 14 -22 -1 -6 -1 -9 1 -4 3 4 14 7 24 7 13 0 17 -4 13
-11 -4 -7 -1 -10 7 -7 8 3 22 -1 31 -10 16 -13 16 -13 5 11 -6 14 -15 23 -19
21 -5 -3 -8 0 -8 5 0 15 11 14 30 -4 14 -13 17 -13 17 0 0 8 -5 12 -10 8 -5
-3 -7 3 -5 13 2 11 11 18 21 18 9 -1 17 3 17 8 0 6 9 0 21 -13 16 -20 18 -20
11 -4 -5 11 -7 26 -4 34 3 9 0 11 -8 6 -9 -5 -11 -4 -6 4 4 6 12 8 18 5 7 -5
9 -1 5 9 -3 9 -2 19 4 22 5 4 9 3 8 -2 -4 -24 4 -34 11 -13 8 25 8 25 9 2 1
-14 5 -20 12 -17 6 4 8 9 5 12 -3 3 1 12 9 19 12 12 10 21 -16 59 -17 25 -35
45 -40 45 -6 0 -6 7 0 19 6 10 7 22 3 26 -4 5 -1 5 6 1 7 -4 10 -11 8 -15 -3
-4 -1 -13 3 -20 5 -7 8 11 7 41 -1 32 3 52 9 51 6 -1 12 10 13 24 1 15 -1 23
-5 19 -5 -4 -8 -13 -8 -19 -1 -7 -7 -11 -14 -9 -7 1 -10 -2 -5 -9 5 -8 3 -9
-5 -4 -10 6 -11 3 -2 -13 11 -20 -2 -42 -16 -28 -4 3 0 6 8 6 10 1 9 4 -4 11
-9 5 -23 7 -30 4 -6 -4 -3 1 8 10 11 9 19 21 17 26 -1 5 1 8 5 7 5 -2 8 2 8 7
0 6 -4 9 -8 7 -5 -1 -6 2 -2 8 5 8 11 7 21 -1 11 -9 14 -8 14 5 0 9 -4 16 -10
16 -5 0 -10 5 -10 11 0 5 5 7 10 4 6 -3 10 -1 10 4 0 15 -13 14 -29 -1 -10
-11 -12 -10 -9 2 2 9 -4 15 -13 14 -11 -1 -15 5 -12 16 3 10 -1 21 -8 25 -8 6
-10 4 -4 -6 5 -8 -2 -5 -15 6 -13 11 -21 15 -17 9 3 -6 0 -11 -7 -11 -7 0 -13
7 -12 16 1 10 -8 17 -24 18 -55 3 -53 2 -41 17 10 12 8 14 -11 9 -18 -4 -20
-3 -8 6 19 14 5 14 -21 0 -15 -7 -24 -7 -35 1 -7 7 -23 10 -34 7 -11 -3 -23 0
-27 5 -3 7 -1 8 5 4 8 -5 10 -2 6 8 -5 14 -8 13 -23 -2 -9 -10 -12 -12 -6 -4
7 11 4 13 -15 10 -14 -1 -24 2 -23 8 1 6 -4 11 -12 11 -8 0 -12 -4 -9 -8 2 -4
-6 -13 -18 -20 -21 -11 -22 -11 -9 5 12 14 12 16 -4 10 -11 -5 -16 -4 -12 3 3
5 0 10 -8 10 -11 0 -12 -4 -4 -13 7 -8 6 -14 -2 -20 -8 -4 -9 -3 -5 4 5 8 -1
12 -18 12 -13 0 -26 -3 -29 -7 -2 -5 -3 -3 -1 3 2 8 -10 10 -37 7 -23 -3 -45
-1 -53 6 -11 10 -16 8 -21 -8z m25 -5 c0 -3 -4 -8 -10 -11 -5 -3 -10 -1 -10 4
0 6 5 11 10 11 6 0 10 -2 10 -4z m-524 -364 c-17 -16 -18 -16 -5 5 7 12 15 20
18 17 3 -2 -3 -12 -13 -22z m538 -24 c-3 -4 -11 -5 -19 -1 -21 7 -19 12 4 10
11 0 18 -5 15 -9z m103 -3 c0 -8 -4 -12 -9 -9 -5 3 -6 10 -3 15 9 13 12 11 12
-6z m508 -24 c3 -5 2 -12 -3 -15 -5 -3 -9 1 -9 9 0 17 3 19 12 6z m-145 -371
c0 -5 -5 -10 -11 -10 -5 0 -7 5 -4 10 3 6 8 10 11 10 2 0 4 -4 4 -10z m-770
-156 c0 -8 -19 -13 -24 -6 -3 5 1 9 9 9 8 0 15 -2 15 -3z m164 -32 c3 -5 -1
-9 -9 -9 -8 0 -12 4 -9 9 3 4 7 8 9 8 2 0 6 -4 9 -8z m632 -16 c0 -14 -3 -23
-7 -20 -6 3 -6 22 0 42 3 10 7 -2 7 -22z m-811 -126 c3 0 4 4 1 8 -2 4 5 9 16
9 11 1 18 -1 14 -4 -3 -3 0 -13 6 -21 7 -7 13 -23 15 -34 3 -18 2 -18 -13 -3
-15 15 -17 14 -31 -2 -10 -12 -9 -8 2 10 9 16 14 31 11 34 -6 6 -41 -26 -41
-38 0 -13 -12 -19 -13 -6 -1 6 -3 24 -6 39 -4 24 -2 27 14 18 10 -6 21 -10 25
-10z m-134 -44 c-7 -8 -8 -16 -4 -18 4 -3 3 -3 -4 -2 -6 2 -14 -2 -17 -9 -2
-7 -5 -7 -5 -2 -1 13 32 56 38 50 2 -3 -1 -11 -8 -19z m83 15 c3 -4 0 -13 -6
-21 -8 -12 -9 -12 -4 3 3 9 1 17 -4 17 -9 0 -14 -14 -12 -31 1 -4 -8 -5 -18
-2 -11 3 -20 9 -20 14 0 5 7 6 15 3 10 -4 13 -2 10 8 -6 14 31 23 39 9z m116
-62 c0 -5 -4 -9 -8 -9 -5 0 -9 7 -9 15 0 8 4 12 9 9 4 -3 8 -9 8 -15z m-105
-7 c-3 -3 -11 0 -18 7 -9 10 -8 11 6 5 10 -3 15 -9 12 -12z m-115 -21 c0 -6
-4 -12 -8 -15 -5 -3 -9 1 -9 9 0 8 4 15 9 15 4 0 8 -4 8 -9z m15 -30 c3 -5 2
-12 -3 -15 -5 -3 -9 1 -9 9 0 17 3 19 12 6z m882 -146 c0 -8 -4 -12 -9 -9 -4
3 -8 9 -8 15 0 5 4 9 8 9 5 0 9 -7 9 -15z m-701 -237 c4 -7 3 -10 -1 -5 -5 4
-18 -1 -29 -10 -21 -18 -21 -18 -2 5 22 26 23 26 32 10z m204 -54 c0 -2 -9 0
-20 6 -11 6 -20 13 -20 16 0 2 9 0 20 -6 11 -6 20 -13 20 -16z m114 14 c-4 -7
-14 -21 -22 -30 -12 -14 -12 -18 -2 -18 7 0 11 -3 7 -6 -3 -3 -16 1 -29 10
-12 9 -17 16 -10 16 7 0 10 5 7 10 -5 8 -11 7 -21 -1 -7 -6 -11 -16 -7 -22 3
-5 1 -7 -5 -3 -6 3 -14 1 -17 -4 -5 -8 -13 -6 -25 5 -9 8 -24 13 -33 10 -8 -4
-17 -2 -20 2 -5 8 43 10 51 3 8 -9 30 -3 46 12 10 10 24 14 30 10 19 -12 34
-10 40 4 3 8 8 14 11 14 4 0 3 -6 -1 -12z m-197 -30 c-3 -8 -6 -5 -6 6 -1 11
2 17 5 13 3 -3 4 -12 1 -19z"/>
<path d="M3270 1840 c0 -5 5 -10 10 -10 6 0 10 5 10 10 0 6 -4 10 -10 10 -5 0
-10 -4 -10 -10z"/>
<path d="M3163 2785 c0 -8 4 -12 9 -9 5 3 6 10 3 15 -9 13 -12 11 -12 -6z"/>
<path d="M3115 2700 c-3 -5 -1 -10 4 -10 6 0 11 5 11 10 0 6 -2 10 -4 10 -3 0
-8 -4 -11 -10z"/>
<path d="M2789 2656 c17 -10 20 -15 10 -18 -8 -3 -24 2 -37 10 -12 8 -25 12
-29 8 -3 -3 -1 -6 5 -6 7 0 12 -5 12 -11 0 -6 -7 -8 -15 -5 -9 3 -18 -1 -21
-8 -5 -14 -39 -15 -65 -2 -8 4 -5 0 5 -8 18 -14 15 -20 -6 -17 -4 0 -5 -6 -2
-14 5 -11 2 -13 -9 -9 -9 3 -13 12 -11 19 3 7 1 15 -4 19 -13 8 -8 -30 6 -47
7 -7 9 -17 5 -20 -3 -4 -1 -7 6 -7 9 0 9 -4 -1 -14 -7 -8 -16 -12 -20 -9 -4 2
-5 -3 -2 -12 4 -9 3 -15 -2 -13 -5 2 -9 -1 -9 -7 0 -5 3 -9 8 -7 12 4 8 -12
-8 -35 -11 -16 -12 -24 -4 -29 7 -4 9 -3 6 3 -3 5 0 10 8 10 11 0 12 -3 3 -14
-6 -8 -18 -11 -27 -8 -13 4 -12 2 2 -9 19 -15 23 -31 5 -20 -7 4 -4 -3 7 -16
11 -13 15 -20 8 -17 -6 4 -14 3 -18 -3 -3 -5 1 -10 9 -10 20 0 29 -17 15 -26
-8 -4 -9 -3 -5 4 4 7 3 12 -2 12 -6 0 -13 -7 -16 -16 -3 -8 -2 -12 4 -9 6 3
10 1 10 -5 0 -6 5 -8 10 -5 6 3 10 1 10 -4 0 -6 -6 -11 -13 -11 -14 0 -17 -43
-4 -56 3 -4 5 3 2 15 -2 11 0 21 5 21 14 0 4 -81 -11 -91 -9 -6 -10 -9 -2 -9
6 0 15 5 18 10 3 6 12 10 18 10 9 0 9 -2 0 -8 -7 -4 -11 -18 -8 -30 2 -12 -1
-22 -7 -22 -5 0 -7 7 -4 16 3 8 2 12 -3 9 -14 -8 -9 -46 6 -41 7 3 10 -1 6
-10 -3 -8 0 -21 7 -29 16 -20 6 -19 -14 0 -13 14 -15 13 -13 -5 1 -11 8 -20
17 -21 10 0 9 -3 -5 -9 -19 -8 -19 -9 -1 -9 19 -1 19 -1 0 -23 -10 -13 -12
-17 -4 -10 21 18 32 15 21 -6 -7 -13 -6 -23 2 -32 10 -10 9 -12 -3 -8 -11 4
-16 -1 -17 -16 0 -11 1 -15 4 -8 7 17 20 15 20 -3 0 -8 -5 -15 -10 -15 -5 0
-4 -7 3 -15 11 -13 10 -18 -6 -31 -10 -9 -13 -13 -6 -9 6 3 12 1 12 -5 0 -6 5
-8 12 -4 7 5 8 3 4 -5 -5 -7 -14 -10 -22 -7 -18 7 -18 1 2 -18 8 -9 11 -16 5
-16 -6 0 -11 -5 -11 -11 0 -5 6 -7 13 -3 10 6 10 4 0 -7 -7 -7 -13 -17 -13
-22 0 -4 6 -5 13 -1 8 5 8 2 -2 -9 -9 -12 -10 -17 -2 -17 7 0 9 -5 6 -10 -4
-6 -10 -8 -15 -5 -9 6 -6 -28 5 -45 3 -6 3 -16 -2 -22 -11 -18 -13 -39 -3 -33
4 3 10 -2 14 -10 3 -8 0 -17 -6 -21 -7 -5 -8 -2 -3 7 7 11 6 12 -7 2 -8 -7
-17 -12 -19 -10 -2 1 -2 0 -1 -3 4 -5 8 -6 35 -9 9 -1 9 -3 -1 -9 -19 -12 -24
-52 -6 -45 10 4 12 0 8 -11 -3 -9 -10 -13 -15 -10 -5 3 -6 -2 -3 -10 3 -9 9
-14 13 -11 12 7 7 -79 -4 -87 -6 -5 -6 -8 1 -8 7 0 14 -7 17 -14 4 -11 1 -13
-11 -10 -9 3 -1 -4 18 -16 19 -12 28 -19 19 -16 -13 3 -15 0 -12 -15 3 -11 9
-22 14 -25 5 -3 6 2 3 10 -3 9 -2 16 4 16 5 0 13 -7 16 -16 4 -11 13 -13 28
-9 22 7 23 7 3 -8 -11 -8 -24 -13 -30 -10 -6 4 -6 2 -2 -3 5 -5 12 -9 15 -9
18 -1 30 -17 25 -32 -6 -15 -5 -16 9 -3 9 9 12 18 6 21 -5 3 -1 9 10 11 15 4
19 2 15 -8 -4 -10 0 -12 11 -8 9 4 14 9 12 12 -3 3 0 12 6 20 10 11 8 17 -7
29 -19 13 -17 14 14 8 19 -3 39 -9 44 -12 6 -3 7 -1 3 5 -3 6 2 16 11 22 16
10 16 11 1 6 -24 -7 -31 9 -12 25 15 12 34 19 61 21 7 1 9 6 5 12 -5 6 -8 22
-7 36 0 14 -4 28 -10 32 -6 5 -5 8 3 8 8 0 10 5 6 12 -5 7 -2 9 7 6 17 -6 24
28 8 37 -5 3 -6 -1 -3 -9 3 -9 2 -16 -3 -16 -17 0 -23 13 -12 27 6 7 9 13 7
13 -3 0 -2 18 2 40 4 22 4 38 0 35 -3 -2 -6 12 -6 30 1 38 5 41 26 23 12 -11
12 -10 3 2 -6 8 -9 23 -8 33 2 9 -1 17 -6 17 -5 0 -9 5 -9 11 0 5 5 7 12 3 7
-4 8 -3 4 5 -4 6 -3 18 3 25 8 9 7 13 -4 13 -8 0 -12 -4 -9 -8 2 -4 1 -10 -4
-13 -4 -2 -8 11 -8 30 0 37 5 41 25 22 11 -11 11 -9 0 9 -7 12 -16 20 -20 17
-4 -2 -3 13 2 34 11 47 11 65 1 58 -5 -3 -8 5 -7 17 1 12 -2 27 -7 33 -6 8 -3
11 8 10 9 0 18 7 19 16 2 10 0 17 -3 17 -19 -3 -22 3 -12 21 9 16 8 22 -5 27
-13 5 -14 7 -3 14 11 7 10 11 -2 19 -13 8 -13 10 0 10 10 0 11 3 2 12 -7 7 -8
17 -1 29 7 13 5 21 -8 29 -17 11 -17 11 0 6 21 -7 22 1 2 20 -20 20 -19 34 3
34 14 0 15 2 2 9 -8 6 -19 7 -25 3 -5 -3 -4 2 4 11 15 19 26 23 15 5 -4 -7 -3
-8 5 -4 6 4 9 12 5 17 -3 5 -9 7 -14 4 -5 -3 -11 -1 -14 4 -4 5 -1 13 5 17 8
5 9 3 4 -7 -7 -12 -5 -12 6 -1 12 11 12 14 -1 22 -8 5 -17 7 -21 5 -3 -3 -4 7
-1 20 2 14 9 28 15 32 5 3 0 14 -14 25 -13 11 -17 18 -8 15 9 -3 16 1 16 9 0
8 -7 14 -16 14 -14 0 -14 2 -1 10 13 8 12 10 -3 10 -15 0 -16 2 -5 14 7 8 18
11 23 8 6 -3 4 1 -2 10 -7 8 -9 18 -5 23 4 4 -4 5 -17 2 -18 -4 -21 -3 -12 6
15 15 14 30 -1 21 -8 -5 -7 0 2 11 14 17 13 17 -10 11 l-25 -8 23 17 c18 13
20 20 12 36 -6 11 -16 17 -22 13 -6 -4 -9 -1 -6 7 3 8 11 13 18 11 11 -3 11 0
1 12 -13 15 -36 12 -27 -3 3 -4 0 -13 -5 -21 -7 -11 -8 -7 -5 13 7 38 0 53
-27 54 -22 2 -22 2 2 -11z m-19 -26 c0 -5 -5 -10 -11 -10 -5 0 -7 5 -4 10 3 6
8 10 11 10 2 0 4 -4 4 -10z m-35 -30 c1 -11 -1 -18 -3 -15 -3 3 -12 -1 -21 -8
-14 -10 -14 -10 -4 4 7 9 10 19 6 22 -3 4 -1 7 6 7 7 0 9 5 5 13 -4 6 -3 9 1
4 5 -4 9 -16 10 -27z m-41 -14 c-3 -9 -10 -13 -15 -10 -5 3 -3 11 4 19 15 16
19 13 11 -9z m80 12 c-3 -4 -9 -8 -15 -8 -5 0 -9 4 -9 8 0 5 7 9 15 9 8 0 12
-4 9 -9z m79 -34 c3 -12 -32 -13 -40 -2 -3 6 -1 8 4 5 6 -4 14 1 18 11 7 16
11 12 18 -14z m-93 0 c0 -8 -19 -13 -24 -6 -3 5 1 9 9 9 8 0 15 -2 15 -3z
m120 -98 c0 -3 -4 -8 -10 -11 -5 -3 -10 -1 -10 4 0 6 5 11 10 11 6 0 10 -2 10
-4z m55 -496 c3 -6 -1 -7 -9 -4 -18 7 -21 14 -7 14 6 0 13 -4 16 -10z m-128
-716 c-3 -3 -12 -4 -19 -1 -8 3 -5 6 6 6 11 1 17 -2 13 -5z m-57 -14 c0 -5 -2
-10 -4 -10 -3 0 -8 5 -11 10 -3 6 -1 10 4 10 6 0 11 -4 11 -10z"/>
<path d="M2830 2659 c0 -5 5 -7 10 -4 6 3 10 8 10 11 0 2 -4 4 -10 4 -5 0 -10
-5 -10 -11z"/>
<path d="M1919 2631 c-1 -3 -1 -10 0 -14 1 -5 -4 -5 -11 -1 -16 10 -58 12 -52
2 3 -4 -7 -8 -21 -8 -14 0 -24 -4 -21 -8 3 -5 -1 -9 -9 -9 -8 0 -15 5 -15 11
0 7 -3 6 -8 -1 -5 -7 -20 -14 -35 -15 -20 -2 -23 -5 -15 -15 8 -11 7 -12 -7
-7 -11 5 -16 4 -12 -3 3 -5 0 -10 -8 -10 -11 0 -12 4 -4 13 7 8 6 14 -2 20 -8
4 -9 3 -5 -4 4 -7 3 -12 -3 -12 -5 0 -13 -9 -16 -21 -4 -13 -12 -18 -22 -15
-10 4 -13 2 -10 -8 4 -10 0 -14 -14 -11 -15 3 -19 0 -16 -9 8 -19 -4 -28 -19
-15 -10 8 -12 6 -9 -11 3 -17 0 -20 -12 -16 -13 5 -14 4 -3 -9 10 -12 9 -16
-4 -21 -9 -3 -16 -10 -16 -16 0 -5 6 -6 13 -2 8 5 8 3 -2 -9 -7 -9 -18 -14
-25 -10 -6 3 -8 2 -3 -2 4 -5 0 -19 -8 -31 -13 -21 -13 -24 3 -34 15 -10 14
-11 -5 -7 -13 3 -23 1 -23 -4 0 -5 6 -9 13 -9 6 0 4 -5 -6 -11 -13 -8 -15 -14
-7 -29 7 -13 6 -19 -6 -24 -9 -3 -21 -3 -27 0 -7 3 -4 -1 6 -9 17 -14 24 -33
8 -23 -5 3 -11 -3 -14 -13 -3 -15 -1 -18 12 -15 9 3 5 -1 -8 -9 -14 -8 -19
-17 -13 -21 11 -7 10 -51 -1 -63 -12 -11 -7 -24 6 -17 8 6 8 3 -1 -9 -8 -9
-11 -21 -7 -27 3 -5 -1 -10 -11 -10 -13 0 -12 -4 7 -21 13 -11 18 -18 12 -14
-12 5 -18 -6 -14 -27 0 -5 -6 -8 -14 -8 -9 0 -12 -6 -9 -15 4 -8 11 -12 18 -9
6 3 2 -2 -8 -10 -15 -12 -16 -16 -5 -16 11 -1 10 -4 -3 -14 -19 -14 -25 -32
-8 -21 6 3 10 -3 10 -15 0 -14 -4 -19 -12 -14 -7 4 -2 -5 11 -19 21 -23 22
-27 7 -33 -14 -5 -14 -9 -4 -22 8 -10 9 -13 1 -9 -18 11 -21 -16 -4 -43 10
-14 11 -21 4 -17 -7 5 -13 4 -13 -2 0 -5 6 -12 13 -14 9 -4 8 -6 -2 -6 -10 -1
-10 -7 4 -27 9 -15 12 -24 7 -20 -7 4 -10 -5 -10 -23 1 -17 4 -28 8 -26 12 7
19 -20 10 -35 -4 -7 -13 -10 -19 -6 -7 5 -9 1 -5 -8 3 -9 10 -13 15 -10 5 3 9
-1 9 -8 0 -10 3 -9 11 2 9 12 10 12 5 -3 -3 -10 -6 -21 -6 -23 0 -3 -5 -2 -12
2 -7 5 -8 3 -3 -6 4 -7 2 -16 -6 -22 -10 -6 -6 -7 11 -3 20 6 23 5 13 -6 -7
-7 -13 -17 -13 -22 0 -4 6 -5 13 -1 7 5 7 2 -2 -10 -8 -9 -10 -16 -5 -15 21 4
24 -3 10 -29 -13 -26 -13 -29 5 -40 22 -14 25 -32 5 -32 -17 0 -9 -40 8 -40 6
0 3 -5 -7 -11 -12 -7 -15 -15 -8 -27 4 -9 7 -24 6 -33 -2 -9 3 -16 11 -16 10
0 11 4 3 13 -7 8 -7 14 1 19 12 7 11 8 14 -28 2 -15 -2 -30 -7 -34 -6 -3 -7
-1 -3 5 4 7 2 12 -3 12 -14 0 -14 -17 -1 -25 6 -4 7 -11 4 -17 -4 -6 -2 -8 3
-5 6 4 13 0 17 -8 3 -8 2 -14 -2 -12 -16 5 -16 -17 1 -27 14 -8 20 -8 27 4 18
28 10 1 -10 -35 -11 -19 -16 -34 -12 -34 23 4 52 -2 52 -11 0 -5 -8 -7 -17 -3
-12 3 -10 0 5 -12 13 -9 29 -14 37 -11 9 3 15 -1 15 -10 0 -8 -4 -12 -10 -9
-6 3 -7 -1 -3 -10 3 -9 9 -13 12 -8 3 4 15 9 26 11 11 2 25 9 31 17 11 15 45
15 56 0 5 -7 8 -7 9 0 0 6 2 18 4 28 2 9 -1 15 -6 11 -5 -3 -6 -11 -3 -17 5
-9 4 -9 -6 0 -10 9 -10 15 4 28 9 9 16 12 16 6 0 -6 8 -11 18 -11 14 0 15 2 2
10 -12 8 -11 12 6 32 25 27 28 62 5 53 -11 -4 -10 0 5 16 10 12 13 19 6 15
-10 -6 -13 -3 -12 10 1 11 2 30 1 44 -1 20 -3 22 -11 10 -7 -12 -9 -10 -7 8 1
12 6 21 13 18 7 -3 9 5 6 20 -2 13 -8 21 -12 19 -5 -3 -12 -1 -15 5 -4 6 -1 9
6 8 7 -2 14 7 15 19 1 12 4 28 7 37 4 9 -1 19 -10 25 -22 12 -25 51 -4 51 14
0 14 2 1 9 -8 6 -17 8 -20 6 -9 -5 -6 27 4 43 4 7 2 12 -5 12 -7 0 -9 3 -6 7
4 3 2 12 -4 19 -7 8 -6 14 2 20 8 4 9 3 5 -4 -5 -8 -1 -10 10 -5 11 4 13 8 6
11 -7 2 -9 9 -6 14 5 7 2 8 -5 4 -8 -6 -11 -2 -9 10 2 12 -2 18 -11 16 -11 -2
-12 0 -4 10 15 20 24 50 13 43 -6 -3 -10 1 -10 10 0 9 4 14 9 10 5 -3 13 0 17
6 4 8 3 9 -4 5 -7 -4 -12 -1 -12 8 0 8 -6 17 -12 19 -10 4 -10 6 0 6 6 1 12 6
12 12 0 5 -5 7 -11 3 -8 -5 -10 1 -7 19 3 14 1 32 -3 39 -5 8 -2 15 9 20 15 6
15 7 0 7 -11 1 -15 7 -11 22 5 16 8 18 15 7 8 -10 9 -10 5 2 -2 8 -9 15 -15
15 -5 0 -14 3 -18 8 -4 4 -1 7 8 7 15 0 18 26 4 48 -4 6 -3 12 3 12 6 0 7 7 4
17 -4 11 -3 14 5 9 19 -11 14 5 -5 21 -10 8 -12 12 -5 8 9 -5 11 1 8 20 -4 21
-2 25 10 21 8 -3 13 -2 9 3 -3 5 1 12 7 14 10 4 10 6 1 6 -7 1 -13 8 -13 17 0
8 4 13 9 9 5 -3 13 0 17 6 4 8 3 9 -4 5 -7 -4 -12 -2 -12 4 0 6 -5 8 -12 4 -7
-4 -8 -3 -4 5 4 6 12 8 18 5 7 -5 9 -1 5 9 -4 11 -2 14 7 11 7 -3 19 3 27 12
8 10 9 15 2 11 -6 -4 -14 -3 -18 3 -3 5 -1 10 5 10 6 0 8 5 5 10 -4 6 -11 7
-17 4 -7 -4 -8 -2 -4 5 4 6 11 9 16 6 4 -3 10 2 14 10 3 8 11 15 18 15 9 0 9
-3 -2 -11 -12 -9 -11 -9 5 -4 35 13 129 13 137 1 5 -7 8 -4 8 7 0 10 4 16 9
13 5 -4 12 0 15 6 3 7 3 2 -1 -12 -5 -22 -4 -23 11 -11 12 10 16 10 16 1 0
-10 3 -10 15 0 18 15 20 -1 3 -19 -10 -11 -10 -13 0 -7 7 4 12 1 12 -8 0 -9 8
-16 18 -16 14 0 15 -2 2 -10 -13 -9 -13 -10 0 -11 8 -1 18 -1 22 0 11 1 -1
-42 -14 -51 -10 -6 -9 -8 3 -8 18 0 29 -20 29 -48 0 -14 -2 -14 -9 -3 -6 8 -8
2 -6 -20 3 -43 14 -71 26 -63 5 3 6 -2 3 -10 -3 -9 -13 -12 -22 -9 -13 4 -12
2 3 -10 12 -10 15 -16 7 -17 -7 0 -10 -5 -7 -10 4 -6 12 -8 18 -4 7 3 3 -2 -7
-10 -11 -9 -14 -16 -8 -16 7 0 12 -5 12 -11 0 -5 -4 -7 -10 -4 -6 3 -7 -1 -4
-9 3 -9 9 -14 13 -11 4 2 8 -2 8 -10 0 -8 -4 -12 -9 -9 -14 9 -5 -29 10 -45 9
-9 10 -17 3 -24 -7 -7 -7 -16 0 -30 9 -15 8 -18 -2 -12 -9 6 -10 3 -5 -10 5
-15 4 -16 -8 -6 -12 10 -14 9 -9 -8 3 -12 9 -19 13 -16 14 9 19 -10 8 -25 -8
-12 -9 -12 -4 3 3 10 2 16 -3 13 -5 -3 -11 -14 -14 -25 -3 -14 -1 -18 10 -14
13 5 13 3 3 -17 -10 -19 -10 -22 2 -18 9 4 14 -1 14 -13 0 -22 -7 -24 -26 -6
-12 10 -12 9 -3 -3 5 -8 9 -25 8 -38 -1 -14 3 -21 11 -18 7 3 10 -2 7 -15 -3
-10 -10 -19 -15 -19 -5 0 -6 5 -2 12 4 7 3 8 -5 4 -7 -5 -9 -12 -3 -19 4 -7 8
-24 7 -39 -1 -18 3 -24 10 -18 7 6 10 -10 8 -52 -2 -48 2 -65 15 -75 15 -13
15 -13 -5 -4 -27 14 -33 14 -33 1 0 -5 5 -9 12 -7 7 1 12 -2 13 -8 2 -23 26
-54 39 -49 8 3 17 0 21 -5 3 -6 10 -9 15 -6 4 3 11 -2 14 -11 6 -15 4 -15 -19
0 -20 13 -23 13 -19 1 3 -8 14 -17 25 -20 10 -4 19 -12 19 -18 0 -7 4 -6 10 3
8 12 10 12 10 -5 l1 -20 12 20 c6 11 12 23 13 28 1 4 2 10 3 13 0 4 13 -2 29
-12 26 -17 27 -17 12 2 -8 10 -19 22 -25 26 -5 4 -6 8 -1 8 5 0 18 -8 29 -18
19 -17 20 -16 7 8 -13 24 -12 24 5 10 17 -14 18 -13 12 4 -7 17 -5 17 10 5 10
-7 15 -9 11 -5 -4 5 -3 15 4 23 9 11 7 12 -7 7 -13 -5 -16 -4 -10 5 4 8 20 11
36 9 23 -4 26 -2 18 9 -9 10 -7 13 6 13 14 0 15 3 6 14 -9 11 -9 15 1 19 10 4
10 6 1 6 -7 1 -13 6 -13 12 0 5 6 7 13 4 6 -4 4 0 -5 7 -15 13 -15 15 0 27 15
11 15 11 -3 6 -19 -5 -19 -4 -2 9 20 15 23 36 5 36 -9 0 -8 4 2 10 13 9 13 10
0 11 -10 0 -8 3 5 9 19 8 19 9 1 9 -16 1 -17 3 -5 18 12 14 12 15 1 9 -11 -7
-12 -4 -3 13 9 16 9 21 -1 21 -10 0 -10 2 1 9 9 6 10 11 3 15 -6 4 -9 13 -6
21 4 8 9 13 13 10 4 -2 8 2 8 10 0 8 -4 15 -9 15 -5 0 -4 8 1 18 6 10 6 24 1
32 -5 8 -7 17 -4 21 2 4 0 11 -6 14 -8 5 -6 15 4 31 14 21 14 23 1 17 -17 -6
-17 17 0 30 6 4 5 10 -4 16 -11 7 -11 9 0 14 12 5 12 6 0 6 -11 1 -11 4 0 18
10 11 10 14 2 9 -7 -4 -13 -3 -13 3 0 5 6 12 13 14 9 4 8 6 -2 6 -11 1 -11 4
0 18 12 15 12 16 -1 8 -13 -8 -13 -7 -1 8 12 15 11 17 -5 17 -18 1 -18 1 -1
11 15 9 16 13 6 26 -15 17 -13 74 2 83 5 4 1 14 -11 25 l-20 18 21 23 c13 14
17 24 10 29 -7 3 -10 1 -9 -6 2 -6 -3 -14 -9 -16 -10 -3 -9 6 2 36 10 30 11
40 2 38 -7 -1 -12 6 -12 15 0 10 -6 23 -13 30 -16 16 -16 38 1 38 8 0 7 4 -3
10 -13 9 -13 10 0 10 13 0 13 2 0 9 -8 6 -17 8 -21 5 -4 -2 -6 4 -4 13 1 11
10 17 21 16 11 -1 13 0 7 3 -7 3 -13 14 -13 25 0 10 -5 19 -12 19 -6 0 -8 3
-5 7 4 3 2 12 -4 20 -9 10 -8 13 0 13 7 0 9 5 6 10 -5 8 -12 7 -23 -2 -10 -7
-7 -1 6 14 17 19 20 28 11 33 -8 5 -10 4 -5 -3 11 -19 -20 -14 -35 5 -8 10 -9
14 -2 10 20 -13 23 9 2 23 -20 15 -27 36 -7 24 7 -5 8 -3 3 5 -5 9 -14 6 -33
-11 -20 -17 -23 -18 -10 -3 20 24 14 67 -8 58 -10 -4 -12 0 -8 11 4 10 -1 18
-12 23 -11 4 -25 15 -33 26 -11 15 -15 16 -22 6 -7 -11 -9 -9 -9 5 0 20 0 20
-16 0 -13 -16 -15 -16 -10 -2 3 10 0 20 -6 24 -6 4 -8 3 -5 -3 4 -6 0 -13 -8
-16 -10 -4 -12 -1 -8 10 5 13 3 14 -17 3 -19 -10 -22 -10 -18 2 5 11 -5 12
-51 8 -31 -3 -63 -10 -71 -15 -12 -7 -13 -6 -3 6 10 13 10 16 -2 16 -8 0 -16
-3 -16 -6z m418 -317 c-3 -3 -12 -4 -19 -1 -8 3 -5 6 6 6 11 1 17 -2 13 -5z
m-437 -88 c0 -2 -9 -6 -20 -9 -11 -3 -18 -1 -14 4 5 9 34 13 34 5z m45 -16
c-3 -5 -12 -10 -18 -10 -7 0 -6 4 3 10 19 12 23 12 15 0z m-95 -8 c0 -5 -7 -9
-15 -9 -8 0 -12 4 -9 9 3 4 9 8 15 8 5 0 9 -4 9 -8z m60 -2 c0 -5 -2 -10 -4
-10 -3 0 -8 5 -11 10 -3 6 -1 10 4 10 6 0 11 -4 11 -10z m461 -92 c-10 -11
-11 -9 -5 6 6 15 4 17 -6 11 -9 -6 -11 -4 -5 4 5 9 10 10 18 2 8 -8 7 -14 -2
-23z m-647 -74 c3 -8 2 -12 -4 -9 -6 3 -10 10 -10 16 0 14 7 11 14 -7z m657
-47 c-10 -9 -11 -8 -5 6 3 10 9 15 12 12 3 -3 0 -11 -7 -18z m-286 -16 c-3 -5
-1 -12 5 -16 6 -4 8 -11 4 -16 -9 -14 -23 -1 -19 19 5 23 4 22 11 22 3 0 3 -4
-1 -9z m-335 -631 c-8 -5 -19 -10 -25 -10 -5 0 -3 5 5 10 8 5 20 10 25 10 6 0
3 -5 -5 -10z m-265 -100 c3 -5 2 -10 -4 -10 -5 0 -13 5 -16 10 -3 6 -2 10 4
10 5 0 13 -4 16 -10z m655 -48 c0 -8 -1 -13 -3 -11 -1 2 -9 12 -16 22 -12 15
-12 17 3 11 9 -3 16 -13 16 -22z m-385 -21 c3 -5 2 -12 -3 -15 -5 -3 -9 1 -9
9 0 17 3 19 12 6z m-240 -89 c-3 -3 -11 0 -18 7 -9 10 -8 11 6 5 10 -3 15 -9
12 -12z m240 -12 c-10 -11 -22 -20 -28 -20 -5 0 1 9 14 20 31 25 37 25 14 0z
m-215 -35 c0 -8 -4 -15 -10 -15 -5 0 -7 7 -4 15 4 8 8 15 10 15 2 0 4 -7 4
-15z m146 -40 c1 -8 -4 -11 -12 -8 -15 6 -18 16 -7 26 8 9 16 1 19 -18z m-42
7 c3 -5 -1 -9 -9 -9 -8 0 -15 4 -15 9 0 4 4 8 9 8 6 0 12 -4 15 -8z"/>
<path d="M1001 2565 c-1 -6 5 -17 12 -24 10 -11 8 -11 -10 -2 -27 14 -36 14
-28 1 3 -5 2 -10 -4 -10 -5 0 -12 6 -15 13 -3 6 -3 0 -1 -16 2 -15 0 -25 -6
-22 -5 4 -9 1 -9 -6 0 -7 -7 -4 -15 7 -8 10 -15 15 -15 10 0 -5 -8 -2 -17 5
-16 13 -17 12 -4 -3 7 -10 18 -15 24 -11 6 3 7 1 3 -5 -4 -6 -14 -8 -23 -5
-12 5 -14 3 -8 -8 7 -11 6 -12 -6 -2 -12 10 -15 8 -16 -8 -1 -12 3 -17 10 -13
7 3 2 -3 -10 -14 -25 -22 -31 -37 -10 -27 6 4 4 0 -5 -8 -14 -11 -15 -16 -5
-27 9 -10 9 -11 -2 -5 -10 6 -11 2 -6 -15 6 -17 4 -21 -6 -15 -8 5 -6 -1 5
-13 17 -20 17 -22 2 -28 -14 -5 -14 -9 -4 -22 11 -13 10 -15 -3 -10 -9 4 -16
1 -16 -7 0 -7 7 -11 16 -8 13 4 13 2 -1 -10 -10 -8 -18 -17 -18 -21 0 -3 8 -6
18 -7 15 0 15 -1 -2 -8 -19 -7 -19 -8 -1 -15 14 -5 16 -9 7 -18 -15 -15 -16
-32 -2 -23 6 3 7 -1 4 -9 -3 -9 -11 -13 -18 -9 -6 4 -4 -2 4 -13 22 -30 24
-30 16 -9 -6 16 -5 17 5 8 10 -10 9 -15 -1 -27 -7 -9 -16 -14 -19 -11 -4 2 -8
-2 -8 -10 0 -8 4 -12 8 -10 3 3 13 -3 20 -12 12 -15 12 -16 -3 -10 -12 4 -15
2 -11 -9 3 -7 9 -14 13 -14 18 0 19 -33 3 -47 -13 -11 -14 -13 -3 -10 21 6 21
-65 0 -75 -13 -6 -13 -7 1 -7 9 -1 23 -8 30 -18 13 -15 12 -15 -11 -3 -22 12
-24 11 -13 -2 7 -8 9 -19 5 -23 -4 -5 -2 -5 4 -2 7 4 15 0 18 -9 3 -8 2 -13
-3 -10 -5 3 -11 -1 -14 -9 -4 -9 -1 -12 8 -9 17 7 14 -24 -4 -35 -10 -6 -9
-10 4 -14 10 -5 14 -3 9 5 -4 7 -3 8 5 4 15 -10 5 -26 -17 -27 -11 -1 -8 -4 8
-9 14 -4 19 -8 13 -9 -7 -1 -13 -6 -13 -12 0 -5 6 -7 13 -3 7 5 6 0 -3 -11
-14 -17 -13 -18 4 -12 16 6 17 5 6 -8 -7 -8 -17 -12 -23 -8 -6 3 -7 1 -3 -6 4
-6 12 -8 18 -5 6 4 5 -3 -2 -16 -7 -12 -8 -20 -2 -16 5 3 12 -1 15 -9 4 -10 1
-12 -10 -8 -11 4 -14 2 -9 -5 4 -7 15 -12 24 -13 11 0 12 -3 5 -6 -7 -2 -13
-11 -13 -19 0 -8 -6 -14 -12 -14 -7 0 -5 -5 5 -11 9 -6 15 -14 12 -20 -4 -5
-1 -9 6 -9 8 0 7 -5 -2 -17 -8 -9 -9 -14 -3 -10 7 4 14 -4 17 -20 5 -26 4 -27
-10 -8 -14 19 -15 19 -8 -5 4 -14 12 -29 18 -35 7 -7 7 -6 2 4 -6 10 -4 12 5
6 10 -6 8 -12 -8 -26 -19 -15 -19 -18 -6 -23 13 -5 14 -9 4 -21 -11 -13 -10
-14 2 -10 9 4 15 0 15 -9 0 -8 -6 -12 -14 -9 -11 4 -11 0 -3 -23 6 -16 15 -33
20 -40 7 -7 5 -11 -5 -11 -8 0 -11 5 -8 10 3 6 1 7 -5 3 -6 -4 -9 -13 -6 -21
4 -8 11 -12 18 -8 7 4 7 2 -1 -8 -9 -11 -10 -18 -2 -26 7 -7 12 -27 13 -45 1
-18 5 -39 9 -46 5 -8 3 -10 -6 -6 -8 3 -18 0 -23 -7 -4 -7 -3 -10 2 -6 6 3 16
2 24 -4 10 -6 11 -9 3 -9 -7 0 -13 -5 -13 -11 0 -5 5 -7 12 -3 6 4 8 3 4 -4
-3 -5 -1 -12 6 -14 7 -3 5 -7 -6 -11 -11 -5 -15 -3 -10 5 4 7 3 8 -4 4 -8 -5
-9 -13 -2 -25 5 -10 6 -22 2 -26 -4 -5 2 -5 13 -1 15 5 17 4 9 -4 -6 -6 -9
-31 -6 -57 3 -34 1 -44 -8 -38 -9 6 -9 3 -1 -12 6 -11 7 -23 3 -27 -3 -4 2 -4
13 0 20 7 20 7 0 -15 -16 -18 -17 -24 -5 -31 8 -5 17 -7 21 -4 4 2 5 -5 2 -16
-7 -25 5 -26 24 -3 12 16 12 14 1 -10 -9 -22 -9 -30 2 -40 10 -10 12 -8 6 8
-7 18 -5 18 17 -3 13 -12 27 -20 30 -17 4 3 2 -1 -3 -7 -9 -10 -13 -10 -20 2
-5 8 -10 10 -10 4 0 -16 21 -33 36 -27 9 3 12 -3 9 -24 l-4 -28 14 30 c12 25
20 22 17 -6 -1 -3 5 -6 13 -6 8 0 12 3 10 7 -2 3 0 12 5 20 6 9 3 18 -7 25
-14 11 -14 12 1 12 9 0 16 -4 16 -8 0 -4 7 -9 15 -13 12 -4 13 -2 5 13 -8 16
-7 18 10 14 11 -3 20 0 20 6 0 6 -6 11 -12 11 -8 0 -7 4 3 10 9 5 25 8 36 5
17 -3 20 1 15 17 -4 18 -2 19 16 9 18 -9 19 -8 14 11 -4 16 -2 19 9 13 12 -8
12 -6 1 8 -8 9 -11 21 -7 27 4 6 -1 18 -11 26 -11 9 -13 12 -5 8 10 -5 12 3
10 40 -2 25 -1 46 2 46 7 0 2 66 -6 88 -3 7 -1 11 3 8 5 -3 8 11 8 29 -1 19
-5 35 -10 35 -5 0 -6 3 -3 7 4 3 -1 11 -10 18 -13 9 -13 14 -3 20 9 6 11 4 5
-5 -5 -9 -4 -11 3 -6 18 11 14 24 -9 31 -17 6 -19 9 -8 16 8 5 10 9 5 9 -5 0
-3 7 4 15 10 12 10 15 -1 15 -10 1 -9 5 4 14 16 12 16 14 2 20 -9 3 -13 2 -10
-4 3 -6 1 -10 -4 -10 -12 0 -14 13 -4 24 11 11 12 36 1 36 -7 0 -7 5 -1 13 11
14 11 27 -1 46 -6 10 -5 12 2 7 7 -4 12 -2 12 3 0 6 -6 11 -12 11 -9 0 -8 4 2
10 11 7 12 10 2 10 -8 0 -13 10 -12 23 3 37 1 49 -10 42 -5 -3 -10 -1 -10 4 0
6 4 11 8 11 5 0 9 16 10 35 1 19 -3 35 -8 35 -6 0 -10 5 -10 11 0 6 7 9 15 5
25 -9 17 2 -12 18 -22 12 -24 15 -9 16 13 0 16 5 11 18 -4 9 -7 30 -6 45 1 16
-2 26 -7 23 -4 -2 -9 4 -9 15 -1 10 3 19 8 19 6 0 7 -5 3 -12 -5 -7 -3 -8 5
-3 9 5 9 11 3 17 -6 6 -8 18 -4 27 5 14 4 14 -13 1 -17 -14 -18 -14 -7 7 9 16
9 22 0 25 -6 2 -12 16 -12 30 -1 15 2 24 6 22 4 -3 8 2 8 11 0 9 -5 13 -11 9
-7 -4 -10 -1 -7 7 3 8 1 23 -5 34 -9 18 -9 19 7 6 14 -12 16 -12 10 3 -3 9 -9
16 -13 16 -4 0 -8 7 -8 15 0 8 4 12 9 9 4 -3 8 0 8 5 0 6 -5 11 -11 11 -5 0
-7 5 -4 10 4 6 11 7 17 4 7 -4 8 -2 4 4 -4 6 -14 8 -24 5 -14 -5 -15 -4 -6 8
14 18 14 49 0 49 -6 0 -4 5 4 10 8 5 10 10 4 10 -7 0 -15 7 -18 16 -6 15 -4
15 10 3 16 -13 16 -12 5 9 -6 12 -9 26 -6 31 3 5 -2 17 -11 25 -8 9 -11 16 -5
16 6 0 11 5 11 11 0 5 -6 7 -12 3 -10 -5 -10 -4 -1 6 9 10 8 19 -5 39 -16 25
-16 25 1 12 20 -15 23 -2 5 18 -11 11 -10 13 5 8 23 -8 22 -2 -5 23 -12 11
-16 20 -10 20 7 0 12 4 12 10 0 5 -8 6 -17 3 -16 -6 -16 -5 -4 10 11 14 11 17
0 18 -8 1 -17 1 -22 0 -4 -1 -2 8 5 19 11 17 10 22 -2 30 -10 6 -11 10 -2 10
6 0 12 7 12 16 0 9 -6 14 -13 11 -24 -9 -13 43 12 62 18 14 21 20 11 26 -9 5
-11 4 -6 -3 5 -8 -1 -12 -16 -12 -18 0 -20 2 -8 10 13 8 12 10 -3 10 -10 0
-16 4 -13 8 3 5 -1 9 -9 9 -8 0 -11 -5 -7 -11 10 -17 11 -37 1 -30 -5 3 -7 10
-4 15 4 5 0 9 -9 9 -8 0 -17 6 -19 13 -3 6 -6 7 -6 2z m-36 -1685 c3 -5 1 -10
-4 -10 -6 0 -11 5 -11 10 0 6 2 10 4 10 3 0 8 -4 11 -10z m12 -56 c-3 -3 -12
-4 -19 -1 -8 3 -5 6 6 6 11 1 17 -2 13 -5z m233 -44 c0 -5 -2 -10 -4 -10 -3 0
-8 5 -11 10 -3 6 -1 10 4 10 6 0 11 -4 11 -10z"/>
<path d="M2617 2553 c-10 -9 -9 -23 1 -23 5 0 9 7 9 15 0 17 -1 18 -10 8z"/>
<path d="M3793 2511 c0 -11 5 -18 9 -15 4 3 5 11 1 19 -7 21 -12 19 -10 -4z"/>
<path d="M1075 2500 c-3 -5 -1 -10 4 -10 6 0 11 5 11 10 0 6 -2 10 -4 10 -3 0
-8 -4 -11 -10z"/>
<path d="M1085 2480 c-16 -7 -17 -9 -3 -9 9 -1 20 4 23 9 7 11 7 11 -20 0z"/>
<path d="M830 2466 c0 -2 7 -7 16 -10 8 -3 12 -2 9 4 -6 10 -25 14 -25 6z"/>
<path d="M3355 2441 c-3 -5 -2 -12 3 -15 5 -3 9 1 9 9 0 17 -3 19 -12 6z"/>
<path d="M4120 2440 c18 -12 30 -13 30 -2 0 4 -10 9 -22 9 -18 2 -20 0 -8 -7z"/>
<path d="M1095 2420 c3 -5 8 -10 11 -10 2 0 4 5 4 10 0 6 -5 10 -11 10 -5 0
-7 -4 -4 -10z"/>
<path d="M4046 2323 c-6 -14 -5 -15 5 -6 7 7 10 15 7 18 -3 3 -9 -2 -12 -12z"/>
<path d="M2347 2269 c7 -7 15 -10 18 -7 3 3 -2 9 -12 12 -14 6 -15 5 -6 -5z"/>
<path d="M3030 2206 c0 -2 8 -10 18 -17 15 -13 16 -12 3 4 -13 16 -21 21 -21
13z"/>
<path d="M808 2193 c7 -3 16 -2 19 1 4 3 -2 6 -13 5 -11 0 -14 -3 -6 -6z"/>
<path d="M3065 2129 c-11 -16 -1 -19 13 -3 7 8 8 14 3 14 -5 0 -13 -5 -16 -11z"/>
<path d="M2050 2080 c-9 -6 -10 -10 -3 -10 6 0 15 5 18 10 8 12 4 12 -15 0z"/>
<path d="M4116 2082 c-3 -5 1 -9 9 -9 8 0 12 4 9 9 -3 4 -7 8 -9 8 -2 0 -6 -4
-9 -8z"/>
<path d="M820 2016 c0 -2 7 -7 16 -10 8 -3 12 -2 9 4 -6 10 -25 14 -25 6z"/>
<path d="M3514 2009 c-3 -6 -1 -16 5 -22 9 -9 10 -7 5 7 -6 15 -4 17 6 11 9
-5 11 -4 6 3 -9 15 -13 15 -22 1z"/>
<path d="M1425 2000 c-3 -6 1 -7 9 -4 18 7 21 14 7 14 -6 0 -13 -4 -16 -10z"/>
<path d="M4130 1841 c0 -7 -5 -9 -12 -5 -7 5 -8 3 -3 -5 5 -9 10 -10 18 -2 6
6 8 14 4 18 -4 3 -7 1 -7 -6z"/>
<path d="M1168 1823 c7 -3 16 -2 19 1 4 3 -2 6 -13 5 -11 0 -14 -3 -6 -6z"/>
<path d="M1410 1816 c0 -2 7 -7 16 -10 8 -3 12 -2 9 4 -6 10 -25 14 -25 6z"/>
<path d="M3385 1740 c-3 -6 1 -7 9 -4 18 7 21 14 7 14 -6 0 -13 -4 -16 -10z"/>
<path d="M2090 1720 c0 -5 5 -10 11 -10 5 0 7 5 4 10 -3 6 -8 10 -11 10 -2 0
-4 -4 -4 -10z"/>
<path d="M3109 1683 c-13 -16 -12 -17 4 -4 16 13 21 21 13 21 -2 0 -10 -8 -17
-17z"/>
<path d="M1736 1593 c-6 -14 -5 -15 5 -6 7 7 10 15 7 18 -3 3 -9 -2 -12 -12z"/>
<path d="M3100 1530 c-8 -5 -12 -11 -10 -14 3 -2 14 2 24 10 22 15 10 19 -14
4z"/>
<path d="M1740 1456 c0 -2 8 -10 18 -17 15 -13 16 -12 3 4 -13 16 -21 21 -21
13z"/>
<path d="M2933 1425 c0 -8 4 -15 9 -15 4 0 8 4 8 9 0 6 -4 12 -8 15 -5 3 -9
-1 -9 -9z"/>
<path d="M1450 1400 c-9 -6 -10 -10 -3 -10 6 0 15 5 18 10 8 12 4 12 -15 0z"/>
<path d="M2933 1385 c0 -8 4 -12 9 -9 5 3 6 10 3 15 -9 13 -12 11 -12 -6z"/>
<path d="M3905 1350 c-3 -6 1 -7 9 -4 18 7 21 14 7 14 -6 0 -13 -4 -16 -10z"/>
<path d="M2090 1340 c0 -5 5 -10 11 -10 5 0 7 5 4 10 -3 6 -8 10 -11 10 -2 0
-4 -4 -4 -10z"/>
<path d="M2870 1325 c-11 -13 -10 -14 4 -9 9 3 16 10 16 15 0 13 -6 11 -20 -6z"/>
<path d="M3846 1305 c-11 -8 -15 -15 -9 -15 6 0 16 7 23 15 16 19 11 19 -14 0z"/>
<path d="M1776 1298 c3 -5 10 -6 15 -3 13 9 11 12 -6 12 -8 0 -12 -4 -9 -9z"/>
<path d="M2095 1289 c-4 -6 -5 -12 -2 -15 2 -3 7 2 10 11 7 17 1 20 -8 4z"/>
<path d="M3690 1240 c0 -9 39 -25 45 -18 2 2 -7 8 -21 15 -13 6 -24 7 -24 3z"/>
<path d="M919 1163 c0 -5 -2 -16 -4 -26 -2 -11 -1 -16 3 -13 8 8 14 46 7 46
-3 0 -5 -3 -6 -7z"/>
<path d="M2262 1145 c4 -4 3 -14 -3 -21 -7 -9 -6 -14 3 -20 7 -4 10 -4 6 1 -4
4 -3 14 3 21 7 9 6 14 -3 20 -7 4 -10 4 -6 -1z"/>
<path d="M1781 1051 l-24 -18 26 0 c19 0 25 4 24 18 -1 11 -1 19 -2 19 0 0
-11 -9 -24 -19z"/>
<path d="M1670 946 c0 -2 7 -7 16 -10 8 -3 12 -2 9 4 -6 10 -25 14 -25 6z"/>
<path d="M1634 924 c-18 -14 -18 -15 4 -4 12 6 22 7 22 2 0 -5 7 -9 15 -9 20
0 19 4 -4 16 -13 8 -23 6 -37 -5z"/>
<path d="M1187 745 c3 -8 9 -12 14 -9 12 7 11 11 -5 17 -10 4 -13 1 -9 -8z"/>
<path d="M1131 674 c0 -11 3 -14 6 -6 3 7 2 16 -1 19 -3 4 -6 -2 -5 -13z"/>
</g>
</svg>
